<svg width="59" height="56" viewBox="0 0 59 56" fill="none" xmlns="http://www.w3.org/2000/svg">
<g filter="url(#filter0_d_13_27)">
<path d="M45.1563 27.6912C45.1563 27.9208 45.1563 28.2473 45.1563 28.5307V28.5874C45.1563 28.6968 45.1563 28.8014 45.1563 28.8806V28.8874C45.1563 29.0125 45.1476 29.1483 45.1437 29.2891C45.0483 32.4777 44.6053 35.2569 43.8148 37.6265C43.0274 39.9936 41.9074 41.9511 40.4556 43.5236C39.1201 44.9626 37.5112 46.1147 35.725 46.911C33.896 47.7368 31.7991 48.2685 29.4381 48.4854C29.4197 48.4854 29.4013 48.4942 29.382 48.4981C28.5763 48.5636 27.7377 48.6047 26.875 48.6047H24.8816C21.8709 48.6047 19.233 48.1812 16.9678 47.3342C14.7016 46.4966 12.803 45.2496 11.2439 43.5803C9.6847 41.9111 8.51147 39.8177 7.72319 37.2434C6.93492 34.6692 6.52869 31.6239 6.52869 28.1095C6.52869 24.5735 6.92686 21.5067 7.72319 18.909C8.51341 16.3133 9.68857 14.1886 11.2439 12.5067C12.7991 10.8247 14.7016 9.55518 16.9707 8.70688C19.0173 7.93936 21.3709 7.51586 24.0314 7.43637C23.5952 7.59372 23.1657 7.75986 22.7556 7.94555C20.8226 8.79634 19.0791 10.0322 17.6294 11.5792C15.9803 13.3384 14.7394 15.5393 13.9027 18.1546C13.0661 20.7698 12.6299 23.7995 12.5805 27.2436C12.5805 27.4605 12.5738 27.6863 12.5738 27.916C12.5738 28.1456 12.5738 28.3684 12.5805 28.5883C12.5984 30.2167 12.7681 31.8397 13.0874 33.4358C13.1996 34.0017 13.3272 34.5421 13.4791 35.0542C13.952 36.6385 14.6272 37.9617 15.5199 39.0084C16.5065 40.1685 17.8064 41.0325 19.3742 41.5954C20.141 41.8654 20.9302 42.0652 21.7323 42.1925C21.7942 42.2013 21.8561 42.214 21.919 42.2238L22.0273 42.2394C22.9565 42.3715 23.8939 42.4368 24.8322 42.4349H26.8228C27.0655 42.4349 27.3064 42.4349 27.5443 42.4232C28.2378 42.4061 28.9296 42.347 29.6161 42.2463C31.0166 42.0508 32.263 41.6811 33.3553 41.137C34.4195 40.6176 35.3685 39.8855 36.1448 38.985C37.1468 37.8191 37.8741 36.3101 38.3539 34.4894C38.8336 32.6686 39.0657 30.5205 39.0657 28.0459C39.0657 25.5714 38.8355 23.432 38.3597 21.6025C37.8838 19.773 37.1681 18.2621 36.1825 17.0795C35.4105 16.1687 34.4617 15.4276 33.395 14.9021C33.3543 14.8825 33.3108 14.8669 33.2712 14.8454H34.1571C35.0631 14.8425 35.9681 14.9046 36.8653 15.0311L36.9369 15.0399C36.993 15.0496 37.0491 15.0623 37.1052 15.0711C37.2425 15.0936 37.376 15.119 37.5095 15.1435L37.7426 15.1913C37.7648 15.1972 37.7861 15.2031 37.8084 15.207L37.8548 15.2158L37.9699 15.2441C38.0444 15.2598 38.1188 15.2793 38.1943 15.2979C38.3877 15.3477 38.586 15.4044 38.7746 15.4611L38.8829 15.4963C39.0106 15.5363 39.1354 15.5803 39.2563 15.6243C40.6442 16.1403 41.7362 16.8948 42.5758 17.8936C43.3718 18.8494 44.0159 20.1258 44.4667 21.7227C44.5692 22.0804 44.6601 22.4606 44.7404 22.8505C44.9697 24.0761 45.1049 25.3177 45.1447 26.5643C45.1447 26.706 45.1543 26.838 45.1572 26.9611V26.967C45.1572 27.0491 45.1572 27.1458 45.1572 27.2602C45.1572 27.3745 45.1563 27.4869 45.1563 27.6912Z" fill="#C9184A"/>
<path d="M52.51 27.9208C52.51 31.4535 52.1118 34.519 51.3155 37.1174C50.5253 39.7141 49.3501 41.8387 47.7948 43.5207C46.2395 45.2027 44.3351 46.4712 42.068 47.3205C39.9962 48.0965 37.6104 48.52 34.9106 48.591C35.3623 48.4307 35.8072 48.2548 36.2366 48.0593C38.173 47.1952 39.9166 45.9446 41.3629 44.3827C42.952 42.6665 44.162 40.5379 44.9928 38.0302C45.8236 35.5224 46.2869 32.6207 46.3895 29.3389V29.3331C46.3895 29.2099 46.3991 29.0751 46.402 28.9275C46.402 28.8082 46.402 28.7017 46.402 28.6108V28.5414C46.402 28.2482 46.402 27.9189 46.402 27.7019C46.402 27.5065 46.402 27.4087 46.402 27.268V27.2524C46.402 27.1615 46.402 27.0569 46.402 26.9387V26.9318C46.402 26.7872 46.3924 26.6552 46.3895 26.5331V26.5233C46.3082 24.4084 46.0384 22.5603 45.5654 20.9761C45.0924 19.3918 44.4202 18.0686 43.5246 17.0219C42.538 15.8618 41.2381 15.0008 39.6702 14.4349C38.1024 13.8691 36.2637 13.5993 34.1571 13.5954H32.1666C31.2509 13.5918 30.3361 13.6548 29.4294 13.784C28.0327 13.9795 26.7866 14.3496 25.6911 14.8943C24.6253 15.416 23.6751 16.1504 22.8978 17.0531C21.8987 18.2191 21.1674 19.728 20.6887 21.5488C20.2099 23.3695 19.9729 25.5079 19.9729 27.9834C19.9729 30.4589 20.2031 32.5983 20.679 34.4268C21.1549 36.2554 21.8706 37.7682 22.8562 38.9498C23.6279 39.8612 24.5767 40.6027 25.6437 41.1282C25.6834 41.1468 25.7279 41.1624 25.7675 41.1849H24.8254C22.8504 41.1849 21.1674 40.9181 19.7834 40.4031C18.3993 39.888 17.3034 39.1326 16.4668 38.1338C15.6679 37.1789 15.0237 35.9026 14.573 34.3056C14.1223 32.7087 13.863 30.7873 13.8195 28.5727C13.8195 28.3528 13.8137 28.1359 13.8137 27.9189C13.8137 27.7019 13.8137 27.4791 13.8195 27.2621C13.8659 23.9145 14.287 21.008 15.0827 18.5426C15.8729 16.0758 17.0239 14.0518 18.526 12.4451C19.863 11.0189 21.4714 9.88035 23.2547 9.09781C25.0866 8.27785 27.1796 7.75596 29.5474 7.53411C30.3856 7.45853 31.2587 7.42075 32.1666 7.42075H34.1571C37.1684 7.42531 39.8073 7.84881 42.0738 8.69125C44.3419 9.53076 46.2386 10.7778 47.8006 12.4471C48.5943 13.3003 49.2807 14.2493 49.8443 15.2725C50.4582 16.3869 50.9533 17.564 51.3213 18.784C52.1099 21.3582 52.5061 24.4038 52.51 27.9208Z" fill="#FF4D6D"/>
</g>
<defs>
<filter id="filter0_d_13_27" x="-4" y="-4" width="67" height="64" filterUnits="userSpaceOnUse" color-interpolation-filters="sRGB">
<feFlood flood-opacity="0" result="BackgroundImageFix"/>
<feColorMatrix in="SourceAlpha" type="matrix" values="0 0 0 0 0 0 0 0 0 0 0 0 0 0 0 0 0 0 127 0" result="hardAlpha"/>
<feOffset/>
<feGaussianBlur stdDeviation="2"/>
<feColorMatrix type="matrix" values="0 0 0 0 0.725 0 0 0 0 0.135938 0 0 0 0 0.312656 0 0 0 0.1 0"/>
<feBlend mode="normal" in2="BackgroundImageFix" result="effect1_dropShadow_13_27"/>
<feBlend mode="normal" in="SourceGraphic" in2="effect1_dropShadow_13_27" result="shape"/>
</filter>
</defs>
</svg>
