<svg width="201" height="56" viewBox="0 0 201 56" fill="none" xmlns="http://www.w3.org/2000/svg">
<g filter="url(#filter0_d_273_2)">
<path d="M187.156 27.6912C187.156 27.9208 187.156 28.2473 187.156 28.5307V28.5874C187.156 28.6968 187.156 28.8014 187.156 28.8806V28.8874C187.156 29.0125 187.148 29.1483 187.144 29.2891C187.048 32.4777 186.605 35.2569 185.815 37.6265C185.027 39.9936 183.907 41.9511 182.456 43.5236C181.12 44.9626 179.511 46.1147 177.725 46.911C175.896 47.7368 173.799 48.2685 171.438 48.4854C171.42 48.4854 171.401 48.4942 171.382 48.4981C170.576 48.5636 169.738 48.6047 168.875 48.6047H166.882C163.871 48.6047 161.233 48.1812 158.968 47.3342C156.702 46.4966 154.803 45.2496 153.244 43.5803C151.685 41.9111 150.511 39.8177 149.723 37.2434C148.935 34.6692 148.529 31.6239 148.529 28.1095C148.529 24.5735 148.927 21.5067 149.723 18.909C150.513 16.3133 151.689 14.1886 153.244 12.5067C154.799 10.8247 156.702 9.55518 158.971 8.70688C161.017 7.93936 163.371 7.51586 166.031 7.43637C165.595 7.59372 165.166 7.75986 164.756 7.94555C162.823 8.79634 161.079 10.0322 159.629 11.5792C157.98 13.3384 156.739 15.5393 155.903 18.1546C155.066 20.7698 154.63 23.7995 154.581 27.2436C154.581 27.4605 154.574 27.6863 154.574 27.916C154.574 28.1456 154.574 28.3684 154.581 28.5883C154.598 30.2167 154.768 31.8397 155.087 33.4358C155.2 34.0017 155.327 34.5421 155.479 35.0542C155.952 36.6385 156.627 37.9617 157.52 39.0084C158.506 40.1685 159.806 41.0325 161.374 41.5954C162.141 41.8654 162.93 42.0652 163.732 42.1925C163.794 42.2013 163.856 42.214 163.919 42.2238L164.027 42.2394C164.957 42.3715 165.894 42.4368 166.832 42.4349H168.823C169.066 42.4349 169.306 42.4349 169.544 42.4232C170.238 42.4061 170.93 42.347 171.616 42.2463V42.2463C173.017 42.0508 174.263 41.6811 175.355 41.137C176.42 40.6176 177.368 39.8855 178.145 38.985C179.147 37.8191 179.874 36.3101 180.354 34.4894C180.834 32.6686 181.066 30.5205 181.066 28.0459C181.066 25.5714 180.836 23.432 180.36 21.6025C179.884 19.773 179.168 18.2621 178.182 17.0795C177.41 16.1687 176.462 15.4276 175.395 14.9021C175.354 14.8825 175.311 14.8669 175.271 14.8454H176.157C177.063 14.8425 177.968 14.9046 178.865 15.0311L178.937 15.0399C178.993 15.0496 179.049 15.0623 179.105 15.0711C179.243 15.0936 179.376 15.119 179.509 15.1435L179.743 15.1913C179.765 15.1972 179.786 15.2031 179.808 15.207L179.855 15.2158L179.97 15.2441C180.044 15.2598 180.119 15.2793 180.194 15.2979C180.388 15.3477 180.586 15.4044 180.775 15.4611L180.883 15.4963C181.011 15.5363 181.135 15.5803 181.256 15.6243C182.644 16.1403 183.736 16.8948 184.576 17.8936C185.372 18.8494 186.016 20.1258 186.467 21.7227C186.569 22.0804 186.66 22.4606 186.74 22.8505C186.97 24.0761 187.105 25.3177 187.145 26.5643C187.145 26.706 187.154 26.838 187.157 26.9611V26.967C187.157 27.0491 187.157 27.1458 187.157 27.2602C187.157 27.3745 187.156 27.4869 187.156 27.6912Z" fill="#C9184A"/>
<path d="M194.51 27.9208C194.51 31.4535 194.112 34.519 193.315 37.1174C192.525 39.7141 191.35 41.8387 189.795 43.5207C188.24 45.2027 186.335 46.4712 184.068 47.3205C181.996 48.0965 179.61 48.52 176.911 48.591C177.362 48.4307 177.807 48.2548 178.237 48.0593C180.173 47.1952 181.917 45.9446 183.363 44.3827C184.952 42.6665 186.162 40.5379 186.993 38.0302C187.824 35.5224 188.287 32.6207 188.389 29.3389V29.3331C188.389 29.2099 188.399 29.0751 188.402 28.9275C188.402 28.8082 188.402 28.7017 188.402 28.6108V28.5414C188.402 28.2482 188.402 27.9189 188.402 27.7019C188.402 27.5065 188.402 27.4087 188.402 27.268V27.2524C188.402 27.1615 188.402 27.0569 188.402 26.9386V26.9318C188.402 26.7872 188.392 26.6552 188.389 26.5331V26.5233C188.308 24.4084 188.038 22.5603 187.565 20.9761C187.092 19.3918 186.42 18.0686 185.525 17.0219C184.538 15.8618 183.238 15.0008 181.67 14.4349C180.102 13.8691 178.264 13.5993 176.157 13.5954H174.167C173.251 13.5918 172.336 13.6548 171.429 13.784V13.784C170.033 13.9795 168.787 14.3496 167.691 14.8943C166.625 15.416 165.675 16.1504 164.898 17.0531C163.899 18.2191 163.167 19.728 162.689 21.5488C162.21 23.3695 161.973 25.5079 161.973 27.9834C161.973 30.4589 162.203 32.5983 162.679 34.4268C163.155 36.2554 163.871 37.7682 164.856 38.9498C165.628 39.8612 166.577 40.6027 167.644 41.1282C167.683 41.1468 167.728 41.1624 167.768 41.1849H166.825C164.85 41.1849 163.167 40.9181 161.783 40.4031C160.399 39.888 159.303 39.1326 158.467 38.1338C157.668 37.1789 157.024 35.9026 156.573 34.3056C156.122 32.7087 155.863 30.7873 155.82 28.5727C155.82 28.3528 155.814 28.1359 155.814 27.9189C155.814 27.7019 155.814 27.4791 155.82 27.2621C155.866 23.9145 156.287 21.008 157.083 18.5426C157.873 16.0758 159.024 14.0518 160.526 12.4451C161.863 11.0189 163.471 9.88035 165.255 9.09781C167.087 8.27785 169.18 7.75596 171.547 7.53411C172.386 7.45853 173.259 7.42075 174.167 7.42075H176.157C179.168 7.42531 181.807 7.84881 184.074 8.69125C186.342 9.53076 188.239 10.7778 189.801 12.4471C190.594 13.3003 191.281 14.2493 191.844 15.2725C192.458 16.3869 192.953 17.564 193.321 18.784C194.11 21.3582 194.506 24.4038 194.51 27.9208Z" fill="#FF4D6D"/>
</g>
<path d="M9.11655 15.835V25H6.56855V21.321H3.46155V25H0.913547V15.835H3.46155V19.28H6.56855V15.835H9.11655ZM13.9677 25.091C13.2397 25.091 12.5853 24.9393 12.0047 24.636C11.4327 24.3327 10.982 23.8993 10.6527 23.336C10.3233 22.7727 10.1587 22.1097 10.1587 21.347C10.1587 20.593 10.3233 19.9343 10.6527 19.371C10.9907 18.8077 11.4457 18.3743 12.0177 18.071C12.5983 17.7677 13.2527 17.616 13.9807 17.616C14.7087 17.616 15.3587 17.7677 15.9307 18.071C16.5113 18.3743 16.9663 18.8077 17.2957 19.371C17.6337 19.9343 17.8027 20.593 17.8027 21.347C17.8027 22.101 17.6337 22.764 17.2957 23.336C16.9663 23.8993 16.5113 24.3327 15.9307 24.636C15.35 24.9393 14.6957 25.091 13.9677 25.091ZM13.9677 22.881C14.323 22.881 14.6177 22.751 14.8517 22.491C15.0943 22.2223 15.2157 21.841 15.2157 21.347C15.2157 20.853 15.0943 20.476 14.8517 20.216C14.6177 19.956 14.3273 19.826 13.9807 19.826C13.634 19.826 13.3437 19.956 13.1097 20.216C12.8757 20.476 12.7587 20.853 12.7587 21.347C12.7587 21.8497 12.8713 22.231 13.0967 22.491C13.322 22.751 13.6123 22.881 13.9677 22.881ZM21.3873 18.994C21.6733 18.578 22.02 18.2487 22.4273 18.006C22.8347 17.7633 23.2723 17.642 23.7403 17.642V20.359H23.0253C22.4707 20.359 22.059 20.4673 21.7903 20.684C21.5217 20.9007 21.3873 21.2777 21.3873 21.815V25H18.8393V17.707H21.3873V18.994ZM25.9408 17.031C25.4901 17.031 25.1261 16.9097 24.8488 16.667C24.5801 16.4157 24.4458 16.1037 24.4458 15.731C24.4458 15.3497 24.5801 15.0333 24.8488 14.782C25.1261 14.5307 25.4901 14.405 25.9408 14.405C26.3828 14.405 26.7381 14.5307 27.0068 14.782C27.2841 15.0333 27.4228 15.3497 27.4228 15.731C27.4228 16.1037 27.2841 16.4157 27.0068 16.667C26.7381 16.9097 26.3828 17.031 25.9408 17.031ZM27.2018 17.707V25H24.6538V17.707H27.2018ZM31.0708 22.881H34.1778V25H28.2628V22.985L31.1618 19.826H28.2888V17.707H34.0738V19.722L31.0708 22.881ZM38.6347 25.091C37.9067 25.091 37.2523 24.9393 36.6717 24.636C36.0997 24.3327 35.649 23.8993 35.3197 23.336C34.9903 22.7727 34.8257 22.1097 34.8257 21.347C34.8257 20.593 34.9903 19.9343 35.3197 19.371C35.6577 18.8077 36.1127 18.3743 36.6847 18.071C37.2653 17.7677 37.9197 17.616 38.6477 17.616C39.3757 17.616 40.0257 17.7677 40.5977 18.071C41.1783 18.3743 41.6333 18.8077 41.9627 19.371C42.3007 19.9343 42.4697 20.593 42.4697 21.347C42.4697 22.101 42.3007 22.764 41.9627 23.336C41.6333 23.8993 41.1783 24.3327 40.5977 24.636C40.017 24.9393 39.3627 25.091 38.6347 25.091ZM38.6347 22.881C38.99 22.881 39.2847 22.751 39.5187 22.491C39.7613 22.2223 39.8827 21.841 39.8827 21.347C39.8827 20.853 39.7613 20.476 39.5187 20.216C39.2847 19.956 38.9943 19.826 38.6477 19.826C38.301 19.826 38.0107 19.956 37.7767 20.216C37.5427 20.476 37.4257 20.853 37.4257 21.347C37.4257 21.8497 37.5383 22.231 37.7637 22.491C37.989 22.751 38.2793 22.881 38.6347 22.881ZM48.2773 17.642C49.118 17.642 49.7853 17.9237 50.2793 18.487C50.7733 19.0417 51.0203 19.7957 51.0203 20.749V25H48.4723V21.087C48.4723 20.671 48.364 20.346 48.1473 20.112C47.9307 19.8693 47.6403 19.748 47.2763 19.748C46.895 19.748 46.596 19.8693 46.3793 20.112C46.1627 20.346 46.0543 20.671 46.0543 21.087V25H43.5063V17.707H46.0543V18.747C46.2797 18.4177 46.583 18.1533 46.9643 17.954C47.3457 17.746 47.7833 17.642 48.2773 17.642ZM60.7047 23.505H57.4547L56.9607 25H54.2827L57.6237 15.835H60.5617L63.8897 25H61.1987L60.7047 23.505ZM60.0677 21.555L59.0797 18.591L58.1047 21.555H60.0677ZM72.1822 17.707V25H69.6212V23.96C69.4045 24.2893 69.1055 24.558 68.7242 24.766C68.3429 24.9653 67.9052 25.065 67.4112 25.065C66.5619 25.065 65.8902 24.7877 65.3962 24.233C64.9109 23.6697 64.6682 22.907 64.6682 21.945V17.707H67.2032V21.62C67.2032 22.036 67.3115 22.3653 67.5282 22.608C67.7535 22.842 68.0482 22.959 68.4122 22.959C68.7849 22.959 69.0795 22.842 69.2962 22.608C69.5129 22.3653 69.6212 22.036 69.6212 21.62V17.707H72.1822ZM77.9353 22.829V25H76.8303C74.967 25 74.0353 24.077 74.0353 22.231V19.826H73.1383V17.707H74.0353V15.939H76.5963V17.707H77.9223V19.826H76.5963V22.27C76.5963 22.4693 76.6396 22.6123 76.7263 22.699C76.8216 22.7857 76.9776 22.829 77.1943 22.829H77.9353ZM82.497 25.091C81.769 25.091 81.1146 24.9393 80.534 24.636C79.962 24.3327 79.5113 23.8993 79.182 23.336C78.8526 22.7727 78.688 22.1097 78.688 21.347C78.688 20.593 78.8526 19.9343 79.182 19.371C79.52 18.8077 79.975 18.3743 80.547 18.071C81.1276 17.7677 81.782 17.616 82.51 17.616C83.238 17.616 83.888 17.7677 84.46 18.071C85.0406 18.3743 85.4956 18.8077 85.825 19.371C86.163 19.9343 86.332 20.593 86.332 21.347C86.332 22.101 86.163 22.764 85.825 23.336C85.4956 23.8993 85.0406 24.3327 84.46 24.636C83.8793 24.9393 83.225 25.091 82.497 25.091ZM82.497 22.881C82.8523 22.881 83.147 22.751 83.381 22.491C83.6236 22.2223 83.745 21.841 83.745 21.347C83.745 20.853 83.6236 20.476 83.381 20.216C83.147 19.956 82.8566 19.826 82.51 19.826C82.1633 19.826 81.873 19.956 81.639 20.216C81.405 20.476 81.288 20.853 81.288 21.347C81.288 21.8497 81.4006 22.231 81.626 22.491C81.8513 22.751 82.1416 22.881 82.497 22.881ZM96.8976 17.642C97.8163 17.642 98.5356 17.9193 99.0556 18.474C99.5843 19.0287 99.8486 19.787 99.8486 20.749V25H97.3006V21.087C97.3006 20.697 97.1923 20.3937 96.9756 20.177C96.759 19.9603 96.4643 19.852 96.0916 19.852C95.719 19.852 95.4243 19.9603 95.2076 20.177C94.991 20.3937 94.8826 20.697 94.8826 21.087V25H92.3346V21.087C92.3346 20.697 92.2263 20.3937 92.0096 20.177C91.8016 19.9603 91.5113 19.852 91.1386 19.852C90.7573 19.852 90.4583 19.9603 90.2416 20.177C90.025 20.3937 89.9166 20.697 89.9166 21.087V25H87.3686V17.707H89.9166V18.669C90.142 18.357 90.4323 18.11 90.7876 17.928C91.1516 17.7373 91.5676 17.642 92.0356 17.642C92.573 17.642 93.0496 17.759 93.4656 17.993C93.8903 18.227 94.224 18.5563 94.4666 18.981C94.7266 18.5823 95.069 18.2617 95.4936 18.019C95.9183 17.7677 96.3863 17.642 96.8976 17.642ZM100.829 21.347C100.829 20.593 100.963 19.9343 101.232 19.371C101.509 18.8077 101.882 18.3743 102.35 18.071C102.826 17.7677 103.355 17.616 103.936 17.616C104.438 17.616 104.872 17.7157 105.236 17.915C105.6 18.1143 105.881 18.383 106.081 18.721V17.707H108.629V25H106.081V23.986C105.881 24.324 105.595 24.5927 105.223 24.792C104.859 24.9913 104.43 25.091 103.936 25.091C103.355 25.091 102.826 24.9393 102.35 24.636C101.882 24.3327 101.509 23.8993 101.232 23.336C100.963 22.764 100.829 22.101 100.829 21.347ZM106.081 21.347C106.081 20.879 105.951 20.5107 105.691 20.242C105.439 19.9733 105.127 19.839 104.755 19.839C104.373 19.839 104.057 19.9733 103.806 20.242C103.554 20.502 103.429 20.8703 103.429 21.347C103.429 21.815 103.554 22.1877 103.806 22.465C104.057 22.7337 104.373 22.868 104.755 22.868C105.127 22.868 105.439 22.7337 105.691 22.465C105.951 22.1963 106.081 21.8237 106.081 21.347ZM114.384 22.829V25H113.279C111.415 25 110.484 24.077 110.484 22.231V19.826H109.587V17.707H110.484V15.939H113.045V17.707H114.371V19.826H113.045V22.27C113.045 22.4693 113.088 22.6123 113.175 22.699C113.27 22.7857 113.426 22.829 113.643 22.829H114.384ZM116.839 17.031C116.389 17.031 116.025 16.9097 115.747 16.667C115.479 16.4157 115.344 16.1037 115.344 15.731C115.344 15.3497 115.479 15.0333 115.747 14.782C116.025 14.5307 116.389 14.405 116.839 14.405C117.281 14.405 117.637 14.5307 117.905 14.782C118.183 15.0333 118.321 15.3497 118.321 15.731C118.321 16.1037 118.183 16.4157 117.905 16.667C117.637 16.9097 117.281 17.031 116.839 17.031ZM118.1 17.707V25H115.552V17.707H118.1ZM122.944 25.091C122.216 25.091 121.562 24.9393 120.981 24.636C120.409 24.3327 119.959 23.8993 119.629 23.336C119.3 22.7727 119.135 22.1097 119.135 21.347C119.135 20.593 119.3 19.9343 119.629 19.371C119.967 18.8077 120.422 18.3743 120.994 18.071C121.575 17.7677 122.229 17.616 122.957 17.616C123.685 17.616 124.335 17.7677 124.907 18.071C125.488 18.3743 125.943 18.8077 126.272 19.371C126.61 19.9343 126.779 20.593 126.779 21.347C126.779 22.101 126.61 22.764 126.272 23.336C125.943 23.8993 125.488 24.3327 124.907 24.636C124.327 24.9393 123.672 25.091 122.944 25.091ZM122.944 22.881C123.3 22.881 123.594 22.751 123.828 22.491C124.071 22.2223 124.192 21.841 124.192 21.347C124.192 20.853 124.071 20.476 123.828 20.216C123.594 19.956 123.304 19.826 122.957 19.826C122.611 19.826 122.32 19.956 122.086 20.216C121.852 20.476 121.735 20.853 121.735 21.347C121.735 21.8497 121.848 22.231 122.073 22.491C122.299 22.751 122.589 22.881 122.944 22.881ZM132.587 17.642C133.428 17.642 134.095 17.9237 134.589 18.487C135.083 19.0417 135.33 19.7957 135.33 20.749V25H132.782V21.087C132.782 20.671 132.674 20.346 132.457 20.112C132.24 19.8693 131.95 19.748 131.586 19.748C131.205 19.748 130.906 19.8693 130.689 20.112C130.472 20.346 130.364 20.671 130.364 21.087V25H127.816V17.707H130.364V18.747C130.589 18.4177 130.893 18.1533 131.274 17.954C131.655 17.746 132.093 17.642 132.587 17.642Z" fill="#475569"/>
<path d="M8.55696 40.9C7.95196 40.9 7.81996 40.636 7.81996 40.196V39.03H6.79696V40.46C6.79696 41.285 7.23696 42 8.33696 42H11.714C12.154 42 12.55 41.879 12.869 41.373C13.166 41.879 13.606 42 14.101 42H14.332C14.497 42 14.552 41.824 14.552 41.428C14.552 41.076 14.497 40.9 14.332 40.9H14.134C13.738 40.9 13.397 40.724 13.397 40.251V39.074H12.385V40.251C12.385 40.68 12.165 40.9 11.714 40.9H8.55696ZM11.329 37.281H10.284V38.26H11.329V37.281ZM9.89896 37.281H8.85396V38.26H9.89896V37.281ZM14.3271 40.9C14.1621 40.9 14.1071 41.076 14.1071 41.472C14.1071 41.824 14.1621 42 14.3271 42H15.3281C16.3511 42 16.9341 41.428 16.9341 40.328V39.074H15.9221V40.251C15.9221 40.68 15.6911 40.9 15.2511 40.9H14.3271ZM16.7911 43.133H15.7681V44.112H16.7911V43.133ZM15.3501 43.133H14.3161V44.112H15.3501V43.133ZM19.8192 42C19.9842 42 20.0392 41.824 20.0392 41.428C20.0392 41.076 19.9842 40.9 19.8192 40.9H19.5772C19.1922 40.9 19.0052 40.636 19.0052 40.218V35.895H17.9822V40.46C17.9822 41.626 18.6312 42 19.3792 42H19.8192ZM19.8164 40.9C19.6514 40.9 19.5964 41.076 19.5964 41.472C19.5964 41.824 19.6514 42 19.8164 42H20.2454C20.6964 42 21.1034 41.879 21.4224 41.373C21.7304 41.879 22.1704 42 22.6764 42C23.1274 42 23.5784 41.879 23.8974 41.373C24.2054 41.879 24.6454 42 25.0964 42C26.1084 42 26.7024 41.428 26.7024 40.328V39.074H25.6904V40.251C25.6904 40.68 25.4484 40.9 25.0524 40.9C24.7224 40.9 24.4364 40.724 24.4364 40.251V39.074H23.4134V40.251C23.4134 40.68 23.1824 40.9 22.6764 40.9C22.3024 40.9 21.9614 40.724 21.9614 40.251V39.074H20.9384V40.251C20.9384 40.68 20.7074 40.9 20.2564 40.9H19.8164ZM34.1153 42C34.8853 42 35.6333 41.505 35.6333 40.493V39.074H34.6213V40.251C34.6213 40.68 34.4233 40.9 33.9503 40.9H30.7933C30.1883 40.9 30.0563 40.636 30.0563 40.196V39.03H29.0333V40.46C29.0333 41.285 29.4733 42 30.5733 42H34.1153ZM32.9163 43.133H31.7943V44.156H32.9163V43.133ZM36.5306 43.32L36.5856 44.42H37.5976C39.1266 44.42 40.0506 43.21 40.0506 41.835V40.438C40.0506 38.975 39.2806 38.425 38.3676 38.425C37.2456 38.425 36.6626 39.305 36.6626 40.339C36.6626 41.395 36.9926 42 38.3676 42H39.0496C38.9946 42.726 38.5546 43.32 37.5426 43.32H36.5306ZM37.6416 40.262C37.6416 39.778 37.8836 39.481 38.3346 39.481C38.8076 39.481 39.0716 39.745 39.0716 40.438V40.9H38.4116C37.8066 40.9 37.6416 40.724 37.6416 40.262ZM44.1351 40.9C43.5301 40.9 43.3981 40.636 43.3981 40.196V39.03H42.3751V40.46C42.3751 41.285 42.8151 42 43.9151 42H47.2921C47.7321 42 48.1281 41.879 48.4471 41.373C48.7441 41.879 49.1841 42 49.6791 42H49.9101C50.0751 42 50.1301 41.824 50.1301 41.428C50.1301 41.076 50.0751 40.9 49.9101 40.9H49.7121C49.3161 40.9 48.9751 40.724 48.9751 40.251V39.074H47.9631V40.251C47.9631 40.68 47.7431 40.9 47.2921 40.9H44.1351ZM46.9071 37.281H45.8621V38.26H46.9071V37.281ZM45.4771 37.281H44.4321V38.26H45.4771V37.281ZM52.2813 42C53.3043 42 53.8873 41.428 53.8873 40.328V39.074H52.8753V40.251C52.8753 40.68 52.6443 40.9 52.2043 40.9H49.9053C49.7403 40.9 49.6853 41.076 49.6853 41.472C49.6853 41.824 49.7403 42 49.9053 42H52.2813ZM52.6113 43.133H51.5883V44.112H52.6113V43.133ZM51.1703 43.133H50.1363V44.112H51.1703V43.133ZM56.1343 39.074H55.1223V41.835C55.1223 42.594 54.6603 43.32 53.5493 43.32H53.4173L53.4723 44.42H53.7253C55.0893 44.42 56.0903 43.276 56.0903 41.835V41.681C56.2773 41.923 56.5743 42 56.8383 42H56.9483C57.1133 42 57.1683 41.824 57.1683 41.428C57.1683 41.076 57.1133 40.9 56.9483 40.9H56.8383C56.4423 40.9 56.1343 40.68 56.1343 40.273V39.074ZM56.9414 40.9C56.7764 40.9 56.7214 41.076 56.7214 41.472C56.7214 41.824 56.7764 42 56.9414 42H57.9424C58.9654 42 59.5484 41.428 59.5484 40.328V39.074H58.5364V40.251C58.5364 40.68 58.3054 40.9 57.8654 40.9H56.9414ZM59.4054 43.133H58.3824V44.112H59.4054V43.133ZM57.9644 43.133H56.9304V44.112H57.9644V43.133ZM60.3764 40.9L60.4314 42H62.5764C63.0714 42 63.5114 41.846 63.7864 41.373C64.1164 41.89 64.5454 42 64.9854 42H65.1064C65.2714 42 65.3264 41.824 65.3264 41.428C65.3264 41.076 65.2714 40.9 65.1064 40.9H64.9854C64.5234 40.9 64.3474 40.713 64.1714 40.24L63.1594 37.369L62.1804 37.765C62.9834 39.943 63.0714 40.273 63.0714 40.471C63.0714 40.669 62.9284 40.9 62.4554 40.9H60.3764ZM65.1055 40.9C64.9405 40.9 64.8855 41.076 64.8855 41.472C64.8855 41.824 64.9405 42 65.1055 42H65.2045C65.5785 42 66.0295 41.868 66.2825 41.351C66.5245 41.791 67.0635 42 67.5915 42C68.6365 42 69.2855 41.296 69.2855 40.119C69.2855 39.03 68.7025 38.271 67.6025 38.271C66.5575 38.271 65.9195 39.019 65.9195 40.108V40.328C65.9195 40.724 65.6445 40.9 65.2045 40.9H65.1055ZM68.3065 40.174C68.3065 40.647 68.0645 40.9 67.5915 40.9C67.1625 40.9 66.8875 40.658 66.8875 40.196C66.8875 39.712 67.0965 39.371 67.6025 39.371C68.1305 39.371 68.3065 39.734 68.3065 40.174ZM71.6046 40.46C71.6046 41.384 72.3086 42 73.3536 42C74.3986 42 75.1686 41.285 75.1686 40.306C75.1686 39.393 74.6626 38.7 73.0126 37.094L72.3306 37.831L72.7926 38.293C72.0116 39.118 71.6046 39.679 71.6046 40.46ZM74.1566 40.229C74.1566 40.581 73.8706 40.9 73.3756 40.9C72.8806 40.9 72.6276 40.603 72.6276 40.251C72.6276 39.965 72.7156 39.657 73.3866 39.008C74.0356 39.657 74.1566 39.91 74.1566 40.229ZM77.3706 41.681C77.5576 41.923 77.8546 42 78.1186 42H78.2286C78.3936 42 78.4486 41.824 78.4486 41.428C78.4486 41.076 78.3936 40.9 78.2286 40.9H78.1186C77.7226 40.9 77.4146 40.68 77.4146 40.273V39.074H76.4026V41.835C76.4026 42.594 75.9406 43.32 74.7526 43.32H74.3236L74.3786 44.42H75.0056C76.3696 44.42 77.3706 43.276 77.3706 41.835V41.681ZM77.4256 36.896H76.3036V37.908H77.4256V36.896ZM78.2324 40.9C78.0674 40.9 78.0124 41.076 78.0124 41.472C78.0124 41.824 78.0674 42 78.2324 42H78.9364C79.3764 42 79.7724 41.879 80.0914 41.373C80.3884 41.879 80.8284 42 81.3234 42H81.6094C81.7744 42 81.8294 41.824 81.8294 41.428C81.8294 41.076 81.7744 40.9 81.6094 40.9H81.3564C80.9604 40.9 80.6194 40.724 80.6194 40.251V39.074H79.6074V40.251C79.6074 40.68 79.3874 40.9 78.9364 40.9H78.2324ZM81.1584 43.133H80.1354V44.112H81.1584V43.133ZM79.7174 43.133H78.6834V44.112H79.7174V43.133ZM81.6055 40.9C81.4405 40.9 81.3855 41.076 81.3855 41.472C81.3855 41.824 81.4405 42 81.6055 42H82.6065C83.6295 42 84.2125 41.428 84.2125 40.328V39.074H83.2005V40.251C83.2005 40.68 82.9695 40.9 82.5295 40.9H81.6055ZM83.9155 36.896H82.7935V37.908H83.9155V36.896ZM87.0975 42C87.2625 42 87.3175 41.824 87.3175 41.428C87.3175 41.076 87.2625 40.9 87.0975 40.9H86.8555C86.4705 40.9 86.2835 40.636 86.2835 40.218V35.895H85.2605V40.46C85.2605 41.626 85.9095 42 86.6575 42H87.0975ZM87.0947 40.9C86.9297 40.9 86.8747 41.076 86.8747 41.472C86.8747 41.824 86.9297 42 87.0947 42H89.6907C90.3617 42 90.9337 41.725 91.0217 41.021C91.9127 41.912 92.3087 42 93.1337 42C93.2987 42 93.3537 41.824 93.3537 41.428C93.3537 41.076 93.2987 40.9 93.1337 40.9C92.3307 40.9 92.1437 40.878 90.3397 39.074L88.8327 37.567L91.3957 36.621L91.1757 35.609L87.8537 36.863V37.996L89.7567 39.91C89.9987 40.152 90.0537 40.328 90.0537 40.515C90.0537 40.724 89.9437 40.9 89.5697 40.9H87.0947ZM93.1318 40.9C92.9668 40.9 92.9118 41.076 92.9118 41.472C92.9118 41.824 92.9668 42 93.1318 42H93.2308C93.6048 42 94.0558 41.868 94.3088 41.351C94.5508 41.791 95.0898 42 95.6178 42C96.6628 42 97.3118 41.296 97.3118 40.119C97.3118 39.03 96.7288 38.271 95.6288 38.271C94.5838 38.271 93.9458 39.019 93.9458 40.108V40.328C93.9458 40.724 93.6708 40.9 93.2308 40.9H93.1318ZM96.3328 40.174C96.3328 40.647 96.0908 40.9 95.6178 40.9C95.1888 40.9 94.9138 40.658 94.9138 40.196C94.9138 39.712 95.1228 39.371 95.6288 39.371C96.1568 39.371 96.3328 39.734 96.3328 40.174ZM106.274 39.646C106.274 38.876 105.889 38.216 104.767 38.216H102.952C101.687 38.216 101.027 39.085 101.027 40.02V44.42H102.05V40.064C102.05 39.569 102.347 39.283 102.985 39.283H103.216C103.04 39.448 102.974 39.69 102.974 40.064V40.57C102.974 41.505 103.612 42 104.536 42C104.954 42 105.482 41.89 105.812 41.406C106.12 41.934 106.549 42 106.945 42H107.077C107.242 42 107.297 41.824 107.297 41.428C107.297 41.076 107.242 40.9 107.077 40.9H106.945C106.571 40.9 106.274 40.669 106.274 40.108V39.646ZM104.613 40.9C104.14 40.9 103.942 40.68 103.942 40.328V39.921C103.942 39.569 104.107 39.316 104.514 39.316H104.723C105.13 39.316 105.295 39.569 105.295 39.91V40.339C105.295 40.691 105.075 40.9 104.613 40.9ZM107.075 40.9C106.91 40.9 106.855 41.076 106.855 41.472C106.855 41.824 106.91 42 107.075 42H107.779C108.219 42 108.615 41.879 108.934 41.373C109.231 41.879 109.671 42 110.166 42H110.452C110.617 42 110.672 41.824 110.672 41.428C110.672 41.076 110.617 40.9 110.452 40.9H110.199C109.803 40.9 109.462 40.724 109.462 40.251V39.074H108.45V40.251C108.45 40.68 108.23 40.9 107.779 40.9H107.075ZM110.067 36.929H109.022V37.908H110.067V36.929ZM108.637 36.929H107.592V37.908H108.637V36.929ZM110.448 40.9C110.283 40.9 110.228 41.076 110.228 41.472C110.228 41.824 110.283 42 110.448 42H110.877C111.328 42 111.735 41.879 112.054 41.373C112.362 41.879 112.802 42 113.308 42C113.759 42 114.21 41.879 114.529 41.373C114.837 41.879 115.233 42 115.684 42C116.047 42 116.487 41.879 116.795 41.373C117.103 41.879 117.543 42 118.027 42H118.269C118.434 42 118.489 41.824 118.489 41.428C118.489 41.076 118.434 40.9 118.269 40.9H118.027C117.675 40.9 117.334 40.724 117.334 40.251V39.074H116.322V40.251C116.322 40.68 116.102 40.9 115.684 40.9C115.354 40.9 115.068 40.724 115.068 40.251V39.074H114.045V40.251C114.045 40.68 113.814 40.9 113.308 40.9C112.934 40.9 112.593 40.724 112.593 40.251V39.074H111.57V40.251C111.57 40.68 111.339 40.9 110.888 40.9H110.448ZM118.269 40.9C118.104 40.9 118.049 41.076 118.049 41.472C118.049 41.824 118.104 42 118.269 42H118.973C119.413 42 119.809 41.879 120.128 41.373C120.425 41.879 120.865 42 121.36 42H121.646C121.811 42 121.866 41.824 121.866 41.428C121.866 41.076 121.811 40.9 121.646 40.9H121.393C120.997 40.9 120.656 40.724 120.656 40.251V39.074H119.644V40.251C119.644 40.68 119.424 40.9 118.973 40.9H118.269ZM121.195 43.133H120.172V44.112H121.195V43.133ZM119.754 43.133H118.72V44.112H119.754V43.133ZM121.642 40.9C121.477 40.9 121.422 41.076 121.422 41.472C121.422 41.824 121.477 42 121.642 42H122.071C122.522 42 122.929 41.879 123.248 41.373C123.556 41.879 123.996 42 124.502 42C124.953 42 125.404 41.879 125.723 41.373C126.031 41.879 126.471 42 126.922 42C127.934 42 128.528 41.428 128.528 40.328V39.074H127.516V40.251C127.516 40.68 127.274 40.9 126.878 40.9C126.548 40.9 126.262 40.724 126.262 40.251V39.074H125.239V40.251C125.239 40.68 125.008 40.9 124.502 40.9C124.128 40.9 123.787 40.724 123.787 40.251V39.074H122.764V40.251C122.764 40.68 122.533 40.9 122.082 40.9H121.642Z" fill="#64748B"/>
<defs>
<filter id="filter0_d_273_2" x="138" y="-4" width="67" height="64" filterUnits="userSpaceOnUse" color-interpolation-filters="sRGB">
<feFlood flood-opacity="0" result="BackgroundImageFix"/>
<feColorMatrix in="SourceAlpha" type="matrix" values="0 0 0 0 0 0 0 0 0 0 0 0 0 0 0 0 0 0 127 0" result="hardAlpha"/>
<feOffset/>
<feGaussianBlur stdDeviation="2"/>
<feColorMatrix type="matrix" values="0 0 0 0 0.725 0 0 0 0 0.135938 0 0 0 0 0.312656 0 0 0 0.1 0"/>
<feBlend mode="normal" in2="BackgroundImageFix" result="effect1_dropShadow_273_2"/>
<feBlend mode="normal" in="SourceGraphic" in2="effect1_dropShadow_273_2" result="shape"/>
</filter>
</defs>
</svg>
