<?xml version="1.0" standalone="no"?>
<!DOCTYPE svg PUBLIC "-//W3C//DTD SVG 20010904//EN"
 "http://www.w3.org/TR/2001/REC-SVG-20010904/DTD/svg10.dtd">
<svg version="1.0" xmlns="http://www.w3.org/2000/svg"
 width="944.000000pt" height="944.000000pt" viewBox="0 0 944.000000 944.000000"
 preserveAspectRatio="xMidYMid meet">
<metadata>
Created by potrace 1.14, written by Peter Selinger 2001-2017
</metadata>
<g transform="translate(0.000000,944.000000) scale(0.100000,-0.100000)"
fill="#000000" stroke="none">
<path d="M5230 8025 c0 -7 -54 -12 -147 -13 -167 -3 -265 -8 -338 -16 -27 -3
-75 -8 -105 -11 -30 -3 -66 -7 -80 -9 -14 -2 -45 -7 -70 -10 -25 -4 -76 -13
-115 -21 -38 -8 -83 -17 -100 -19 -16 -3 -46 -10 -65 -16 -19 -5 -48 -13 -65
-16 -16 -3 -34 -7 -40 -8 -5 -1 -20 -7 -31 -14 -12 -6 -24 -9 -27 -6 -3 3 -19
-2 -36 -10 -17 -9 -33 -16 -36 -16 -14 1 -61 -14 -72 -22 -7 -6 -20 -8 -28 -4
-9 3 -13 2 -10 -4 3 -6 0 -10 -7 -10 -7 0 -33 -10 -58 -22 -25 -11 -50 -22
-57 -24 -22 -4 -208 -98 -211 -106 -2 -4 -9 -8 -15 -8 -7 0 -49 -24 -95 -54
-45 -30 -82 -52 -82 -50 0 3 -12 -7 -27 -21 -16 -14 -34 -23 -41 -20 -7 3 -11
1 -8 -4 3 -5 -11 -21 -32 -37 -40 -30 -52 -40 -122 -103 -24 -22 -48 -37 -54
-34 -5 3 -6 2 -3 -4 3 -5 -18 -33 -48 -61 -30 -29 -55 -55 -55 -57 0 -3 -14
-21 -32 -41 -18 -19 -44 -47 -58 -62 -14 -15 -29 -35 -35 -44 -5 -9 -36 -53
-67 -98 -32 -45 -58 -84 -58 -86 0 -15 -48 -73 -55 -66 -5 4 -5 2 -2 -5 7 -11
-17 -65 -40 -91 -7 -7 -13 -22 -13 -33 0 -10 -4 -19 -8 -19 -6 0 -18 -22 -37
-70 -11 -29 -29 -71 -41 -97 -9 -17 -17 -37 -18 -45 -2 -7 -9 -26 -16 -43 -7
-16 -14 -34 -16 -40 -1 -5 -7 -23 -14 -40 -6 -16 -11 -31 -11 -32 0 -2 -6 -18
-15 -38 -8 -19 -12 -35 -9 -35 3 0 -1 -13 -10 -30 -9 -16 -13 -30 -11 -30 3 0
-1 -19 -10 -42 -8 -22 -12 -43 -9 -46 3 -3 0 -10 -5 -17 -5 -7 -11 -26 -13
-43 -2 -18 -7 -35 -10 -39 -4 -3 -7 -16 -7 -28 0 -12 -3 -25 -7 -29 -4 -4 -8
-21 -10 -39 -1 -18 -6 -52 -12 -77 -5 -25 -12 -63 -16 -85 -4 -22 -8 -47 -10
-55 -2 -8 -4 -25 -4 -38 -1 -16 -5 -21 -13 -16 -8 5 -8 1 1 -10 9 -10 11 -20
5 -24 -5 -4 -10 -23 -10 -42 -3 -59 -7 -105 -12 -113 -2 -5 -6 -36 -8 -70 -2
-34 -6 -98 -10 -142 -12 -161 -18 -516 -10 -662 1 -32 -2 -53 -8 -53 -6 0 -5
-4 2 -8 6 -5 11 -19 11 -33 -1 -13 1 -60 5 -104 8 -85 9 -102 21 -180 4 -27 8
-64 9 -80 1 -17 5 -36 10 -43 4 -7 2 -12 -6 -12 -9 0 -10 -2 -2 -8 7 -4 15
-27 18 -52 3 -25 17 -90 32 -145 14 -55 26 -109 27 -120 1 -11 5 -22 9 -25 4
-3 9 -15 11 -25 2 -11 7 -28 12 -37 4 -10 8 -29 9 -42 0 -13 4 -22 9 -19 4 2
7 -2 7 -10 0 -8 7 -27 14 -43 8 -15 13 -31 10 -36 -3 -4 -1 -8 3 -8 5 0 19
-27 32 -60 13 -33 28 -60 33 -60 4 0 8 -5 8 -10 0 -6 16 -35 35 -65 19 -30 31
-55 27 -55 -4 0 1 -5 11 -11 9 -5 17 -14 17 -19 0 -5 13 -23 30 -41 16 -18 26
-37 23 -43 -3 -6 -3 -8 1 -4 9 7 46 -27 46 -42 0 -6 4 -10 10 -10 5 0 32 -22
59 -50 28 -27 55 -50 61 -50 6 0 13 -7 16 -15 4 -8 12 -15 19 -15 6 0 24 -11
39 -25 14 -13 26 -22 26 -19 0 3 13 -3 30 -13 17 -9 30 -21 30 -26 0 -4 4 -6
9 -2 5 3 17 -2 25 -11 9 -8 16 -13 16 -10 0 4 21 -4 48 -18 74 -37 253 -96
311 -102 13 -2 31 -6 40 -10 16 -7 23 -8 96 -18 22 -3 40 -5 40 -6 0 -4 165
-22 222 -24 23 -1 44 -4 47 -7 9 -8 276 2 276 12 0 5 -6 9 -14 9 -8 0 -22 8
-32 17 -10 10 -20 18 -23 17 -12 -2 -144 85 -149 98 -2 4 -8 8 -14 8 -6 0 -28
18 -50 39 -21 22 -38 37 -38 34 0 -3 -19 14 -42 39 -63 65 -108 117 -108 123
0 3 -8 13 -17 23 -10 10 -24 27 -30 38 -7 10 -24 36 -38 57 -30 45 -56 94 -54
103 0 4 -3 10 -8 13 -4 3 -23 40 -42 81 -18 41 -38 83 -43 93 -5 10 -6 22 -3
27 3 4 1 10 -5 12 -6 2 -12 12 -14 23 -2 11 -10 34 -16 50 -7 17 -16 44 -21
60 -4 17 -14 55 -23 85 -8 30 -18 69 -21 85 -7 33 -12 57 -15 65 -1 3 -2 8 -2
11 1 4 -3 22 -9 40 -5 19 -12 57 -15 84 -5 48 -10 84 -14 95 -1 3 -2 8 -2 11
1 3 -3 35 -8 70 -10 68 -19 173 -24 275 -2 34 -6 67 -10 72 -3 6 -2 13 3 17 7
4 7 15 1 31 -6 14 -6 23 -2 20 9 -6 8 36 -1 51 -4 7 -3 14 3 18 6 4 7 12 3 18
-12 19 -11 57 1 57 6 0 5 4 -2 9 -19 11 -19 15 -4 34 7 8 9 18 4 21 -10 6 -10
45 1 62 3 6 3 14 0 18 -11 11 -12 36 -2 36 6 0 6 7 0 19 -6 10 -8 21 -5 24 3
2 7 56 10 118 2 63 7 132 10 154 3 22 8 58 10 80 2 22 6 60 9 85 4 25 7 57 7
73 0 15 3 27 7 27 3 0 7 12 7 28 2 41 15 106 23 112 3 3 6 21 6 40 0 19 2 40
6 45 6 9 9 25 25 105 3 13 8 27 12 30 4 3 8 14 10 25 3 24 4 29 21 80 8 22 18
46 24 53 5 6 7 12 4 12 -13 0 89 220 107 232 6 4 7 8 3 8 -5 0 1 13 12 29 12
16 21 34 21 40 0 5 7 14 16 19 9 5 15 12 14 16 -2 10 43 76 53 76 4 0 7 6 7
13 1 29 282 297 312 297 5 0 16 6 23 13 8 6 21 17 29 24 52 44 378 178 481
199 11 2 31 6 45 10 82 19 146 31 213 38 27 3 53 8 58 11 5 4 9 1 9 -6 0 -8 3
-9 14 0 22 18 427 35 460 18 10 -5 16 -5 13 0 -3 4 30 8 74 8 43 0 79 -4 79
-8 0 -5 6 -5 13 0 13 8 157 11 157 3 0 -3 33 -6 73 -6 65 -1 202 -11 202 -14
0 -4 44 -11 73 -11 17 -1 32 -4 32 -8 0 -3 12 -7 28 -7 86 -3 85 -3 71 -21
-12 -16 -12 -17 2 -6 15 12 27 11 82 -3 21 -5 52 -11 70 -13 5 -1 6 -5 3 -9
-2 -4 7 -7 21 -6 23 1 105 -28 193 -68 14 -6 27 -12 30 -13 27 -9 80 -37 85
-45 4 -6 11 -8 16 -5 5 4 9 3 9 -2 0 -4 19 -17 41 -28 23 -10 43 -25 46 -32 3
-7 8 -11 13 -8 4 2 21 -8 39 -23 17 -15 42 -35 54 -44 70 -55 96 -81 90 -91
-3 -5 -2 -7 4 -4 11 7 73 -55 73 -72 0 -6 7 -11 15 -11 8 0 15 -4 15 -8 0 -5
8 -18 18 -30 41 -50 52 -67 52 -81 0 -8 3 -11 7 -8 6 7 69 -97 110 -183 37
-78 63 -139 63 -148 0 -5 7 -23 16 -41 9 -18 14 -41 11 -51 -3 -11 0 -18 7
-17 6 1 10 -6 8 -15 -2 -10 1 -18 7 -18 5 0 13 -19 17 -42 9 -49 11 -57 14
-60 2 -4 8 -25 20 -78 6 -25 13 -56 16 -70 3 -14 6 -40 7 -57 0 -18 5 -33 10
-33 5 0 8 -10 7 -22 -1 -13 -1 -25 0 -28 5 -15 11 -52 16 -110 3 -36 7 -67 10
-69 2 -2 -2 -11 -9 -19 -10 -13 -9 -14 1 -8 10 6 13 1 11 -20 -1 -16 2 -37 6
-48 5 -11 3 -27 -4 -38 -10 -16 -10 -18 0 -13 9 6 10 1 7 -19 -3 -14 -2 -26 1
-26 4 0 7 -38 8 -84 0 -47 4 -89 7 -95 4 -6 2 -19 -4 -30 -5 -11 -7 -22 -3
-24 10 -6 9 -199 -1 -215 -4 -7 -3 -12 2 -12 9 0 8 -40 -3 -270 -8 -171 -12
-220 -32 -395 -4 -33 -7 -67 -7 -77 -1 -9 -4 -19 -8 -23 -4 -4 -4 -13 -1 -21
3 -8 -1 -22 -8 -31 -12 -14 -12 -16 0 -8 11 6 12 5 5 -6 -5 -8 -7 -22 -5 -33
1 -10 -1 -16 -6 -13 -4 3 -9 -16 -10 -42 -2 -41 -9 -86 -13 -86 -1 0 -3 -13
-5 -30 -2 -16 -6 -39 -9 -51 -3 -12 -8 -39 -12 -60 -3 -21 -10 -46 -14 -54 -4
-8 -8 -17 -7 -20 1 -9 -18 -95 -23 -105 -3 -6 -4 -10 -14 -50 -7 -28 -32 -112
-42 -145 -3 -8 -5 -17 -6 -20 0 -3 -5 -14 -11 -25 -6 -11 -10 -26 -9 -33 2 -6
-2 -12 -8 -12 -5 0 -9 -3 -8 -7 4 -18 -14 -73 -23 -68 -5 4 -6 0 -3 -8 3 -8 0
-18 -5 -22 -6 -3 -9 -11 -6 -16 4 -5 1 -9 -5 -9 -6 0 -9 -4 -5 -9 3 -5 1 -12
-5 -16 -6 -4 -8 -11 -5 -16 4 -5 2 -9 -3 -9 -5 0 -9 -6 -9 -12 0 -22 -152
-320 -165 -326 -5 -2 -8 -9 -8 -17 0 -7 -7 -18 -15 -25 -8 -7 -13 -16 -10 -20
3 -5 2 -10 -2 -12 -15 -6 -62 -76 -56 -82 4 -3 1 -6 -5 -6 -5 0 -21 -17 -33
-37 -36 -58 -62 -84 -77 -78 -12 4 -12 3 -3 -9 10 -11 8 -17 -7 -28 -10 -7
-21 -21 -25 -31 -4 -10 -12 -15 -17 -12 -6 4 -9 2 -8 -3 2 -5 -8 -21 -22 -36
-47 -52 -180 -186 -180 -182 0 3 -15 -11 -34 -29 -18 -19 -38 -35 -45 -35 -6
0 -11 -4 -11 -8 0 -5 -19 -22 -42 -39 -24 -17 -53 -40 -64 -51 -12 -12 -25
-18 -28 -15 -3 4 -6 1 -6 -6 0 -7 -4 -9 -10 -6 -5 3 -10 2 -10 -3 0 -10 -136
-102 -150 -102 -5 0 -15 -7 -23 -15 -18 -18 -322 -167 -346 -170 -15 -1 -91
-33 -91 -38 0 -1 30 -1 67 0 38 1 68 2 68 3 0 1 32 3 70 4 39 1 75 5 80 7 6 3
28 7 50 8 57 5 99 9 105 11 3 1 8 2 12 1 8 -1 209 35 248 45 14 3 36 7 50 8
14 1 30 5 35 8 6 3 26 9 45 13 33 6 146 39 180 52 8 4 19 5 24 4 4 -1 13 2 20
7 6 5 40 19 76 31 121 43 397 175 420 202 3 3 24 16 48 29 23 13 42 27 42 32
0 4 5 8 11 8 18 0 164 113 256 198 31 28 61 52 65 52 4 0 8 4 8 9 0 5 29 39
65 76 36 36 65 70 65 75 0 5 4 10 8 12 13 5 142 175 142 187 0 5 10 17 22 25
12 9 19 16 15 16 -5 0 0 14 10 30 9 17 21 30 26 30 4 0 6 4 3 9 -3 5 1 14 9
21 8 7 15 21 15 31 0 11 4 19 8 19 10 0 37 50 34 63 -1 4 3 7 8 7 6 0 10 9 10
20 0 11 5 20 10 20 6 0 10 5 10 11 0 6 11 33 25 60 13 27 21 49 18 49 -3 0 0
8 8 18 9 9 26 49 39 87 13 39 28 73 34 77 6 4 8 8 4 8 -4 0 0 19 8 43 26 72
72 229 81 279 3 15 8 26 12 24 4 -3 6 8 5 22 -1 15 2 32 5 37 4 6 7 17 6 25
-1 8 2 22 6 30 4 8 10 37 13 64 4 27 10 54 13 60 4 5 7 23 8 40 2 17 6 49 10
71 4 22 8 51 9 65 1 14 4 30 7 35 3 6 5 25 5 43 -1 17 1 32 4 32 5 0 6 11 10
108 1 20 6 45 11 54 6 10 5 19 -1 23 -6 4 -7 12 -3 18 4 6 8 32 9 57 1 25 5
119 9 210 4 91 8 181 9 200 1 19 -2 47 -6 63 -3 15 -4 27 0 27 4 0 6 42 5 92
-1 51 -2 93 -3 93 0 0 -3 50 -5 110 -5 123 -11 211 -20 300 -3 33 -8 78 -10
100 -4 42 -13 110 -21 160 -3 17 -7 44 -9 60 -5 41 -14 92 -25 139 -5 22 -7
43 -4 47 2 4 -1 11 -7 14 -5 4 -8 13 -5 20 2 7 2 16 -2 20 -4 4 -7 14 -8 23 0
9 -3 24 -6 32 -3 8 -13 44 -21 80 -8 36 -30 112 -47 170 -18 58 -33 111 -33
118 0 6 -3 12 -7 12 -4 0 -13 19 -19 43 -7 23 -24 66 -37 95 -13 29 -24 55
-24 58 0 10 -107 221 -147 289 -61 104 -183 273 -240 331 -7 7 -13 15 -13 17
0 15 -221 223 -305 287 -22 16 -46 35 -53 41 -7 6 -43 31 -80 55 -37 24 -71
47 -77 52 -5 4 -27 16 -47 25 -21 10 -38 22 -38 27 0 6 -3 9 -7 8 -10 -1 -96
38 -107 49 -4 4 -11 8 -14 8 -4 1 -32 12 -62 26 -30 15 -95 41 -145 59 -49 19
-92 37 -95 40 -3 3 -12 6 -20 6 -8 0 -22 3 -30 6 -42 15 -129 38 -143 38 -10
0 -17 3 -17 8 0 4 -16 8 -37 9 -20 1 -39 6 -42 11 -3 5 -13 9 -21 9 -15 0 -64
8 -110 18 -50 10 -153 27 -190 30 -14 1 -25 3 -25 4 0 1 -25 4 -55 7 -29 2
-72 7 -95 9 -60 8 -321 18 -485 18 -89 1 -148 5 -152 11 -5 8 -8 8 -8 1z"/>
<path d="M3613 8000 c-2 -3 -26 -6 -51 -7 -26 0 -60 -4 -77 -7 -16 -3 -52 -8
-80 -11 -27 -3 -61 -7 -75 -10 -14 -2 -43 -7 -65 -10 -22 -4 -67 -13 -100 -20
-33 -7 -63 -11 -67 -9 -5 3 -8 1 -8 -3 0 -5 -14 -10 -32 -11 -17 -2 -36 -6
-42 -11 -6 -5 -18 -9 -26 -9 -8 0 -33 -5 -54 -11 -22 -5 -44 -7 -49 -4 -6 3
-7 1 -3 -5 6 -10 -5 -16 -16 -11 -2 1 -21 -6 -43 -15 -22 -10 -41 -17 -42 -17
-3 1 -7 0 -20 -4 -5 -1 -21 -7 -36 -13 -16 -7 -34 -9 -40 -5 -7 3 -9 2 -4 -2
4 -5 -23 -20 -60 -35 -66 -26 -263 -120 -273 -130 -14 -14 -60 -39 -60 -33 0
5 -4 3 -8 -3 -4 -6 -43 -35 -87 -64 -44 -29 -94 -65 -111 -79 -17 -14 -48 -39
-69 -56 -20 -16 -61 -53 -91 -81 -29 -29 -65 -61 -80 -73 -15 -12 -23 -21 -20
-21 4 0 -12 -20 -36 -45 -42 -44 -56 -61 -115 -135 -15 -19 -31 -36 -35 -38
-5 -2 -8 -10 -8 -17 0 -7 -3 -15 -7 -17 -11 -4 -108 -152 -106 -160 1 -3 -4
-12 -12 -18 -8 -7 -15 -19 -15 -27 0 -8 -5 -11 -12 -7 -7 4 -10 4 -6 -1 6 -6
-56 -139 -72 -155 -3 -3 -6 -10 -7 -16 -2 -11 -30 -77 -68 -159 -7 -16 -11
-33 -9 -37 3 -4 2 -8 -3 -8 -4 0 -17 -28 -27 -62 -11 -35 -23 -67 -28 -72 -4
-6 -8 -20 -8 -31 0 -12 -3 -25 -7 -29 -4 -4 -9 -19 -11 -34 -2 -15 -8 -30 -14
-33 -6 -4 -8 -12 -4 -17 4 -6 0 -26 -8 -45 -21 -51 -75 -298 -91 -412 -2 -16
-6 -43 -9 -60 -8 -51 -18 -118 -22 -160 -2 -22 -6 -60 -9 -85 -11 -97 -27
-363 -29 -482 0 -32 -4 -58 -9 -58 -5 0 -3 -8 4 -17 12 -15 12 -16 -1 -8 -12
7 -13 6 -4 -6 12 -16 13 -167 1 -186 -4 -6 -3 -14 3 -18 5 -3 10 -11 10 -16 0
-6 -6 -7 -12 -3 -10 6 -10 4 -2 -7 7 -8 12 -54 13 -104 2 -108 9 -194 17 -206
3 -5 0 -9 -6 -9 -6 0 -8 -4 -5 -10 6 -10 13 -60 20 -155 2 -33 7 -73 9 -90 3
-16 10 -67 16 -112 6 -45 13 -92 16 -105 2 -13 7 -39 10 -58 3 -19 8 -43 10
-53 3 -10 7 -32 10 -50 4 -32 5 -39 23 -111 5 -22 8 -44 5 -48 -3 -4 0 -8 5
-8 6 0 11 -9 11 -19 0 -10 9 -49 21 -86 11 -38 22 -75 24 -84 2 -9 11 -36 20
-61 9 -25 18 -52 20 -60 2 -8 4 -16 5 -17 2 -2 3 -6 5 -10 1 -5 7 -21 13 -36
7 -16 12 -32 12 -36 0 -8 34 -84 51 -115 8 -14 8 -16 -3 -10 -8 4 -7 0 3 -12
24 -29 58 -101 52 -108 -4 -3 -2 -6 4 -6 6 0 13 -8 16 -17 8 -25 109 -202 129
-228 26 -33 108 -147 108 -150 0 -2 10 -15 23 -28 12 -12 37 -42 56 -65 45
-54 160 -170 188 -189 13 -9 20 -20 16 -26 -3 -5 -2 -7 4 -4 5 3 29 -12 52
-34 24 -21 47 -39 52 -39 5 0 9 -3 9 -7 0 -5 17 -19 38 -33 20 -14 39 -27 42
-30 7 -7 120 -80 165 -107 11 -6 55 -29 97 -50 43 -22 75 -43 70 -47 -4 -4 -2
-7 3 -6 23 5 44 -1 59 -15 8 -9 19 -16 23 -16 25 0 52 -13 46 -22 -3 -5 -1 -7
5 -3 6 3 23 1 39 -6 15 -6 30 -12 33 -13 3 -1 12 -4 20 -8 24 -9 203 -69 220
-72 8 -2 15 -4 15 -5 0 -2 23 -8 60 -15 17 -3 41 -8 55 -12 14 -4 32 -8 40 -9
8 -2 41 -9 72 -17 32 -8 60 -12 62 -10 3 3 11 1 18 -3 7 -4 19 -9 28 -10 8 0
40 -4 70 -8 67 -9 144 -17 185 -21 17 -2 32 -4 35 -5 3 -1 16 -1 29 0 16 1 21
-2 16 -11 -6 -8 -4 -10 5 -4 19 12 152 5 169 -8 12 -9 13 -9 7 1 -5 8 -1 12
13 12 11 0 23 -5 26 -10 4 -6 13 -7 23 -2 15 8 87 8 117 2 6 -1 12 -2 15 -1 3
1 142 4 310 7 168 2 321 6 340 8 85 8 167 18 195 22 17 3 48 7 70 10 71 7 100
11 120 17 11 3 36 8 55 11 19 3 49 9 65 14 17 4 37 8 45 7 8 -1 20 2 26 7 6 4
23 9 38 10 14 1 26 6 26 11 0 4 4 6 8 3 4 -2 41 6 82 20 41 14 82 26 90 28 18
4 26 7 154 58 125 50 271 122 359 176 38 24 73 39 79 36 6 -4 8 -3 5 3 -7 11
39 46 60 46 7 0 10 4 7 8 -2 4 6 13 18 20 13 6 38 25 56 42 17 17 32 28 32 25
0 -4 16 9 35 28 20 19 40 32 46 29 5 -4 8 -2 7 3 -2 4 38 49 87 99 50 49 106
109 125 133 19 24 47 56 61 71 15 16 24 30 21 33 -3 3 3 8 12 12 9 3 13 10 10
15 -3 5 2 12 10 15 9 3 16 10 16 15 0 12 42 73 53 77 4 2 7 10 7 17 0 7 3 15
8 17 4 2 16 19 26 38 11 19 38 69 61 111 23 42 54 106 70 142 16 36 33 63 39
60 5 -3 6 -1 2 6 -4 6 -2 18 4 26 7 8 10 15 7 15 -3 0 1 17 10 38 18 43 30 75
32 82 0 3 15 43 32 90 17 47 30 85 29 85 -3 0 20 88 31 115 5 14 11 34 13 45
2 11 11 50 20 88 9 37 18 79 21 95 3 15 7 38 10 52 17 77 23 116 19 122 -3 5
-1 8 4 8 6 0 8 9 5 20 -3 11 -2 28 2 37 5 10 7 28 6 41 -1 12 1 22 6 22 4 0 9
29 9 65 1 36 7 71 13 79 7 8 8 17 3 20 -5 3 -8 18 -6 33 9 74 13 115 15 162 2
29 6 54 11 57 5 3 5 12 0 20 -5 8 -6 36 -2 62 8 65 4 596 -5 712 -4 52 -8 111
-9 130 -2 19 -5 44 -9 55 -3 11 -9 45 -12 75 -5 52 -8 77 -20 135 -3 14 -7 37
-10 53 -3 15 -10 44 -16 64 -5 20 -8 40 -7 45 1 4 -3 17 -9 29 -7 11 -14 31
-16 45 -2 13 -7 32 -11 41 -4 9 -9 22 -10 30 -2 7 -8 26 -15 41 -6 16 -8 33
-5 39 4 7 2 8 -4 4 -7 -4 -12 -1 -12 9 0 8 -4 23 -9 33 -28 54 -71 151 -71
161 0 6 -4 11 -9 11 -5 0 -13 10 -17 23 -4 12 -17 36 -30 53 -13 17 -24 36
-24 42 0 7 -3 12 -8 12 -4 0 -18 18 -32 40 -14 22 -28 40 -32 40 -5 0 -8 6 -8
14 0 8 -9 18 -20 21 -11 3 -20 11 -20 16 0 11 -34 44 -94 93 -22 17 -47 39
-58 49 -10 9 -21 17 -25 17 -3 0 -20 10 -37 23 -17 12 -53 34 -81 47 -27 14
-52 28 -55 31 -4 4 -118 51 -185 75 -24 9 -141 43 -170 49 -68 16 -165 32
-165 28 0 -3 -8 1 -17 8 -14 12 -16 12 -8 0 6 -10 4 -12 -6 -5 -8 4 -30 9 -49
11 -117 9 -244 17 -300 17 -36 0 -68 5 -72 11 -5 7 -8 6 -8 -1 0 -7 -19 -10
-50 -8 -27 1 -50 1 -50 -1 0 -2 35 -25 78 -50 111 -67 217 -149 293 -226 70
-70 179 -208 179 -227 0 -5 4 -12 8 -14 17 -6 83 -138 76 -149 -4 -7 -3 -9 3
-6 10 6 56 -84 56 -110 0 -7 4 -13 9 -13 4 0 8 -9 8 -20 0 -11 5 -20 12 -20 6
0 9 -3 5 -6 -3 -3 3 -28 13 -55 11 -27 17 -49 14 -49 -4 0 -1 -7 6 -15 6 -8 9
-19 5 -25 -3 -5 -1 -10 5 -10 7 0 10 -6 7 -14 -3 -7 -2 -17 3 -22 5 -5 11 -22
13 -39 3 -16 8 -37 11 -45 3 -8 8 -26 10 -40 34 -167 34 -165 51 -275 8 -52
17 -128 21 -175 2 -25 7 -76 10 -115 9 -91 13 -705 5 -705 -3 0 -6 -28 -7 -63
0 -34 -4 -93 -8 -132 -4 -38 -9 -86 -11 -105 -2 -19 -6 -48 -9 -65 -6 -27 -13
-72 -21 -130 -1 -11 -3 -20 -4 -20 -1 0 -4 -15 -7 -34 -2 -19 -9 -39 -14 -46
-5 -7 -7 -14 -4 -17 3 -3 -2 -34 -11 -69 -10 -35 -19 -72 -20 -82 -2 -9 -7
-22 -10 -27 -4 -6 -8 -21 -11 -35 -2 -13 -9 -37 -16 -52 -6 -16 -11 -31 -10
-35 1 -5 -3 -8 -9 -8 -5 0 -8 -4 -5 -9 3 -5 -6 -35 -21 -67 -15 -33 -27 -61
-27 -64 -4 -20 -30 -70 -38 -70 -5 0 -7 -4 -3 -9 3 -5 0 -15 -7 -23 -7 -7 -14
-20 -16 -28 -2 -8 -8 -17 -13 -18 -5 -2 -9 -10 -9 -18 0 -8 -9 -23 -20 -34
-11 -11 -21 -23 -22 -27 -2 -5 -7 -7 -11 -5 -5 1 -6 -2 -3 -7 7 -11 -4 -42
-13 -37 -4 3 -12 -8 -19 -23 -23 -51 -258 -280 -311 -303 -9 -4 -11 -7 -6 -7
10 -1 -15 -17 -65 -43 -14 -7 -31 -18 -38 -25 -12 -12 -19 -14 -37 -13 -3 1
-13 -6 -21 -15 -9 -8 -22 -15 -30 -15 -8 0 -14 -4 -14 -10 0 -5 -9 -10 -20
-10 -11 0 -20 -5 -20 -11 0 -5 -4 -7 -10 -4 -5 3 -22 -2 -37 -12 -15 -10 -30
-17 -33 -17 -3 1 -14 -2 -25 -7 -33 -12 -59 -22 -70 -25 -5 -1 -49 -13 -97
-27 -77 -23 -113 -31 -198 -42 -14 -2 -26 -4 -27 -5 -2 -2 -12 -4 -23 -5 -11
-1 -21 -4 -22 -5 -8 -8 -58 -4 -58 5 0 5 -4 4 -8 -2 -12 -19 -103 -25 -472
-28 -253 -3 -336 -1 -342 8 -5 9 -8 9 -8 1 0 -8 -14 -11 -37 -9 -21 2 -38 4
-38 5 0 1 -151 12 -192 13 -18 0 -33 3 -33 7 0 3 -17 6 -37 7 -21 0 -60 6 -88
12 -27 6 -59 13 -70 15 -113 23 -305 84 -305 96 0 5 -7 7 -15 4 -8 -4 -15 -2
-15 3 0 5 -6 10 -14 10 -15 0 -108 41 -116 52 -3 3 -27 17 -55 31 -27 14 -58
33 -67 43 -10 9 -18 14 -18 11 0 -4 -7 -1 -15 6 -12 10 -13 16 -3 29 12 14 11
15 -6 1 -15 -11 -20 -12 -23 -2 -3 6 -10 12 -17 12 -6 0 -18 9 -26 20 -8 11
-18 20 -22 20 -12 0 -128 118 -178 181 -70 87 -91 119 -122 179 -7 14 -15 27
-18 30 -8 7 -79 157 -95 199 -7 20 -16 45 -20 56 -33 88 -50 143 -42 138 5 -3
2 5 -7 18 -8 14 -17 40 -18 59 -2 19 -6 37 -10 40 -3 3 -8 19 -11 35 -3 17 -8
41 -11 55 -3 14 -9 41 -12 60 -7 35 -11 55 -18 88 -3 15 -9 51 -22 147 -3 17
-6 50 -8 75 -3 25 -5 45 -6 45 -1 0 -3 16 -4 35 -2 19 -7 67 -11 105 -9 83
-14 635 -6 635 3 0 6 42 7 93 2 145 8 277 15 277 3 0 5 10 6 23 1 33 12 136
19 182 3 22 6 48 6 58 -1 10 4 15 10 11 6 -4 6 2 -1 15 -7 11 -8 21 -4 21 4 0
8 10 9 23 1 35 30 195 41 227 3 8 7 24 9 35 1 11 7 40 13 65 7 25 13 52 15 60
18 71 30 106 40 112 8 6 7 8 -2 8 -10 0 -10 4 0 23 7 12 11 26 10 31 -2 4 3
14 9 22 6 8 9 14 5 14 -3 0 4 24 15 53 21 52 43 120 40 125 -1 1 5 15 13 30 9
15 22 44 30 65 11 26 20 36 28 31 10 -5 10 -4 2 6 -9 9 -4 28 22 81 19 38 34
72 34 77 0 4 8 17 18 28 20 21 22 26 22 51 0 9 3 13 6 10 4 -4 18 15 31 41 42
83 54 102 64 102 6 0 7 5 4 10 -3 6 -1 10 5 10 6 0 9 4 6 9 -4 5 -2 11 2 13 4
1 32 38 62 81 29 42 57 77 62 77 4 0 8 4 8 10 0 13 27 44 123 144 42 44 77 84
77 88 0 4 3 8 8 8 4 0 31 22 60 50 28 27 52 46 52 43 0 -4 6 1 13 10 24 31
139 117 150 110 6 -3 7 -1 3 5 -7 11 6 17 27 13 5 -1 6 3 3 8 -5 8 90 75 97
68 1 -1 13 8 27 21 13 12 29 22 36 22 6 0 17 7 24 15 7 8 16 12 21 9 5 -3 9
-1 9 5 0 5 16 15 35 22 19 7 35 16 35 20 0 7 39 22 53 20 4 -1 7 4 7 9 0 6 6
10 14 10 7 0 34 11 60 25 25 13 47 24 49 24 1 0 16 5 32 12 17 7 32 13 35 14
3 1 12 5 20 8 8 3 31 10 50 16 27 7 8 9 -83 8 -65 -1 -121 -4 -124 -7z"/>
<path d="M3580 7806 c0 -2 8 -10 18 -17 15 -13 16 -12 3 4 -13 16 -21 21 -21
13z"/>
<path d="M7196 5838 c3 -5 10 -6 15 -3 13 9 11 12 -6 12 -8 0 -12 -4 -9 -9z"/>
</g>
</svg>
