<svg xmlns="http://www.w3.org/2000/svg" xmlns:xlink="http://www.w3.org/1999/xlink" width="120" height="120"><defs><radialGradient id="b" cx="50%" cy="41.178%" r="45.738%" fx="50%" fy="41.178%" gradientTransform="matrix(0 1 -1.22769 0 1.006 -.088)"><stop offset="0%" stop-color="#29193C" stop-opacity=".701"/><stop offset="57.189%" stop-opacity=".138"/><stop offset="100%" stop-opacity="0"/></radialGradient><radialGradient id="d" cx="51.969%" cy="-9.955%" r="148.614%" fx="51.969%" fy="-9.955%" gradientTransform="matrix(0 1 -.85297 0 .435 -.62)"><stop offset="0%" stop-color="#6BA0E2"/><stop offset="100%" stop-color="#131E32"/></radialGradient><radialGradient id="f" cx="5.005%" cy="86.456%" r="55.285%" fx="5.005%" fy="86.456%" gradientTransform="matrix(.54799 .40725 -.26834 1.00297 .255 -.023)"><stop offset="0%" stop-color="#00BAFF" stop-opacity=".231"/><stop offset="100%" stop-color="#83234B" stop-opacity="0"/></radialGradient><radialGradient id="i" cx="50%" cy="41.178%" r="49.394%" fx="50%" fy="41.178%" gradientTransform="matrix(0 1 -.89466 0 .868 -.088)"><stop offset="0%" stop-opacity=".798"/><stop offset="100%" stop-opacity="0"/></radialGradient><radialGradient id="j" cx="51.969%" cy="-9.955%" r="122.902%" fx="51.969%" fy="-9.955%" gradientTransform="matrix(-.01602 .99972 -.96182 -.03366 .432 -.622)"><stop offset="0%" stop-color="#6BA0E2"/><stop offset="100%" stop-color="#131E32"/></radialGradient><radialGradient id="m" cx="50%" cy="50%" r="547.2%" fx="50%" fy="50%" gradientTransform="matrix(.125 0 0 1 .438 0)"><stop offset="0%" stop-color="#21C8F6"/><stop offset="100%" stop-color="#4BDEFF"/></radialGradient><radialGradient id="n" cx="32.563%" cy="-22.835%" r="140.856%" fx="32.563%" fy="-22.835%" gradientTransform="matrix(-.03613 .99849 -.93239 -.07819 .124 -.571)"><stop offset="0%" stop-color="#6BA0E2"/><stop offset="100%" stop-color="#131E32"/></radialGradient><radialGradient id="o" cx="15.155%" cy="-17.144%" r="141.645%" fx="15.155%" fy="-17.144%" gradientTransform="matrix(-.04664 .99748 -.71952 -.07798 .035 -.336)"><stop offset="0%" stop-color="#00BAFF"/><stop offset="100%" stop-color="#83234B" stop-opacity="0"/></radialGradient><radialGradient id="s" cx="50%" cy="-155.423%" r="1171.572%" fx="50%" fy="-155.423%" gradientTransform="matrix(.04717 0 0 1 .476 0)"><stop offset="0%" stop-color="#2B436F"/><stop offset="100%"/></radialGradient><radialGradient id="v" cx="50%" cy="50%" r="226.246%" fx="50%" fy="50%" gradientTransform="matrix(.30233 0 0 1 .349 0)"><stop offset="0%" stop-color="#21C8F6"/><stop offset="100%" stop-color="#4BDEFF"/></radialGradient><radialGradient id="A" cx="50%" cy="50%" r="345.827%" fx="50%" fy="50%" gradientTransform="matrix(.19779 0 0 1 .401 0)"><stop offset="0%" stop-color="#21C8F6"/><stop offset="100%" stop-color="#4BDEFF"/></radialGradient><radialGradient id="B" cx="50%" cy="50%" r="150.671%" fx="50%" fy="50%" gradientTransform="matrix(.45397 0 0 1 .273 0)"><stop offset="0%" stop-color="#21C8F6"/><stop offset="100%" stop-color="#4BDEFF"/></radialGradient><radialGradient id="C" cx="50%" cy="50%" r="217.397%" fx="50%" fy="50%" gradientTransform="matrix(.31463 0 0 1 .343 0)"><stop offset="0%" stop-color="#21C8F6"/><stop offset="100%" stop-color="#4BDEFF"/></radialGradient><radialGradient id="D" cx="50%" cy="50%" r="336.978%" fx="50%" fy="50%" gradientTransform="matrix(.20298 0 0 1 .399 0)"><stop offset="0%" stop-color="#21C8F6"/><stop offset="100%" stop-color="#4BDEFF"/></radialGradient><radialGradient id="E" cx="50%" cy="50%" r="336.619%" fx="50%" fy="50%" gradientTransform="matrix(.2032 0 0 1 .398 0)"><stop offset="0%" stop-color="#21C8F6"/><stop offset="100%" stop-color="#4BDEFF"/></radialGradient><radialGradient id="H" cx="50%" cy="50%" r="217.038%" fx="50%" fy="50%" gradientTransform="matrix(.31515 0 0 1 .342 0)"><stop offset="0%" stop-color="#21C8F6"/><stop offset="100%" stop-color="#4BDEFF"/></radialGradient><radialGradient id="I" cx="50%" cy="50%" r="368.308%" fx="50%" fy="50%" gradientTransform="matrix(.18571 0 0 1 .407 0)"><stop offset="0%" stop-color="#21C8F6"/><stop offset="100%" stop-color="#4BDEFF"/></radialGradient><radialGradient id="L" cx="50%" cy="50%" r="296.679%" fx="50%" fy="50%" gradientTransform="matrix(.23055 0 0 1 .385 0)"><stop offset="0%" stop-color="#21C8F6"/><stop offset="100%" stop-color="#4BDEFF"/></radialGradient><radialGradient id="ad" cx="50%" cy="50%" r="68.4%" fx="50%" fy="50%"><stop offset="0%" stop-color="#21C8F6"/><stop offset="100%" stop-color="#4BDEFF"/></radialGradient><radialGradient id="ae" cx="71.99%" cy="0%" r="125.301%" fx="71.99%" fy="0%"><stop offset="0%" stop-color="#6BA0E2"/><stop offset="100%" stop-color="#131E32"/></radialGradient><radialGradient id="af" cx="15.155%" cy="-17.144%" r="141.442%" fx="15.155%" fy="-17.144%" gradientTransform="rotate(92.677 .144 -.18) scale(1 1.09816)"><stop offset="0%" stop-color="#00BAFF"/><stop offset="100%" stop-color="#83234B" stop-opacity="0"/></radialGradient><radialGradient id="am" cx="28.129%" cy="34.3%" r="98.845%" fx="28.129%" fy="34.3%" gradientTransform="matrix(.1228 .98237 -.70862 .2053 .49 -.004)"><stop offset="0%" stop-color="#00BAFF"/><stop offset="100%" stop-color="#83234B" stop-opacity="0"/></radialGradient><filter id="k" width="150%" height="500%" x="-25%" y="-200%" filterUnits="objectBoundingBox"><feOffset in="SourceAlpha" result="shadowOffsetOuter1"/><feGaussianBlur in="shadowOffsetOuter1" result="shadowBlurOuter1" stdDeviation="1"/><feColorMatrix in="shadowBlurOuter1" values="0 0 0 0 0.180392157 0 0 0 0 0.811764706 0 0 0 0 0.976470588 0 0 0 1 0"/></filter><filter id="t" width="496.4%" height="1411.2%" x="-198.2%" y="-655.6%" filterUnits="objectBoundingBox"><feOffset in="SourceAlpha" result="shadowOffsetOuter1"/><feGaussianBlur in="shadowOffsetOuter1" result="shadowBlurOuter1" stdDeviation="1"/><feColorMatrix in="shadowBlurOuter1" values="0 0 0 0 0.180392157 0 0 0 0 0.811764706 0 0 0 0 0.976470588 0 0 0 1 0"/></filter><filter id="w" width="496.4%" height="1411.2%" x="-198.2%" y="-655.6%" filterUnits="objectBoundingBox"><feOffset in="SourceAlpha" result="shadowOffsetOuter1"/><feGaussianBlur in="shadowOffsetOuter1" result="shadowBlurOuter1" stdDeviation="1"/><feColorMatrix in="shadowBlurOuter1" values="0 0 0 0 0.180392157 0 0 0 0 0.811764706 0 0 0 0 0.976470588 0 0 0 1 0"/></filter><filter id="y" width="359.3%" height="1411.2%" x="-129.7%" y="-655.6%" filterUnits="objectBoundingBox"><feOffset in="SourceAlpha" result="shadowOffsetOuter1"/><feGaussianBlur in="shadowOffsetOuter1" result="shadowBlurOuter1" stdDeviation="1"/><feColorMatrix in="shadowBlurOuter1" values="0 0 0 0 0.180392157 0 0 0 0 0.811764706 0 0 0 0 0.976470588 0 0 0 1 0"/></filter><filter id="F" width="513.2%" height="1411.2%" x="-206.6%" y="-655.6%" filterUnits="objectBoundingBox"><feOffset in="SourceAlpha" result="shadowOffsetOuter1"/><feGaussianBlur in="shadowOffsetOuter1" result="shadowBlurOuter1" stdDeviation="1"/><feColorMatrix in="shadowBlurOuter1" values="0 0 0 0 0.180392157 0 0 0 0 0.811764706 0 0 0 0 0.976470588 0 0 0 1 0"/></filter><filter id="J" width="402.3%" height="1411.2%" x="-151.1%" y="-655.6%" filterUnits="objectBoundingBox"><feOffset in="SourceAlpha" result="shadowOffsetOuter1"/><feGaussianBlur in="shadowOffsetOuter1" result="shadowBlurOuter1" stdDeviation="1"/><feColorMatrix in="shadowBlurOuter1" values="0 0 0 0 0.180392157 0 0 0 0 0.811764706 0 0 0 0 0.976470588 0 0 0 1 0"/></filter><filter id="M" width="496.4%" height="1411.2%" x="-198.2%" y="-655.6%" filterUnits="objectBoundingBox"><feOffset in="SourceAlpha" result="shadowOffsetOuter1"/><feGaussianBlur in="shadowOffsetOuter1" result="shadowBlurOuter1" stdDeviation="1"/><feColorMatrix in="shadowBlurOuter1" values="0 0 0 0 0.180392157 0 0 0 0 0.811764706 0 0 0 0 0.976470588 0 0 0 1 0"/></filter><filter id="O" width="496.4%" height="1411.2%" x="-198.2%" y="-655.6%" filterUnits="objectBoundingBox"><feOffset in="SourceAlpha" result="shadowOffsetOuter1"/><feGaussianBlur in="shadowOffsetOuter1" result="shadowBlurOuter1" stdDeviation="1"/><feColorMatrix in="shadowBlurOuter1" values="0 0 0 0 0.180392157 0 0 0 0 0.811764706 0 0 0 0 0.976470588 0 0 0 1 0"/></filter><filter id="Q" width="359.3%" height="1411.2%" x="-129.7%" y="-655.6%" filterUnits="objectBoundingBox"><feOffset in="SourceAlpha" result="shadowOffsetOuter1"/><feGaussianBlur in="shadowOffsetOuter1" result="shadowBlurOuter1" stdDeviation="1"/><feColorMatrix in="shadowBlurOuter1" values="0 0 0 0 0.180392157 0 0 0 0 0.811764706 0 0 0 0 0.976470588 0 0 0 1 0"/></filter><filter id="S" width="512.5%" height="1411.2%" x="-206.3%" y="-655.6%" filterUnits="objectBoundingBox"><feOffset in="SourceAlpha" result="shadowOffsetOuter1"/><feGaussianBlur in="shadowOffsetOuter1" result="shadowBlurOuter1" stdDeviation="1"/><feColorMatrix in="shadowBlurOuter1" values="0 0 0 0 0.180392157 0 0 0 0 0.811764706 0 0 0 0 0.976470588 0 0 0 1 0"/></filter><filter id="U" width="366.4%" height="1411.2%" x="-133.2%" y="-655.6%" filterUnits="objectBoundingBox"><feOffset in="SourceAlpha" result="shadowOffsetOuter1"/><feGaussianBlur in="shadowOffsetOuter1" result="shadowBlurOuter1" stdDeviation="1"/><feColorMatrix in="shadowBlurOuter1" values="0 0 0 0 0.180392157 0 0 0 0 0.811764706 0 0 0 0 0.976470588 0 0 0 1 0"/></filter><filter id="W" width="513.2%" height="1411.2%" x="-206.6%" y="-655.6%" filterUnits="objectBoundingBox"><feOffset in="SourceAlpha" result="shadowOffsetOuter1"/><feGaussianBlur in="shadowOffsetOuter1" result="shadowBlurOuter1" stdDeviation="1"/><feColorMatrix in="shadowBlurOuter1" values="0 0 0 0 0.180392157 0 0 0 0 0.811764706 0 0 0 0 0.976470588 0 0 0 1 0"/></filter><filter id="Y" width="402.3%" height="1411.2%" x="-151.1%" y="-655.6%" filterUnits="objectBoundingBox"><feOffset in="SourceAlpha" result="shadowOffsetOuter1"/><feGaussianBlur in="shadowOffsetOuter1" result="shadowBlurOuter1" stdDeviation="1"/><feColorMatrix in="shadowBlurOuter1" values="0 0 0 0 0.180392157 0 0 0 0 0.811764706 0 0 0 0 0.976470588 0 0 0 1 0"/></filter><filter id="ab" width="233.9%" height="233.9%" x="-67%" y="-67%" filterUnits="objectBoundingBox"><feOffset in="SourceAlpha" result="shadowOffsetOuter1"/><feGaussianBlur in="shadowOffsetOuter1" result="shadowBlurOuter1" stdDeviation=".5"/><feColorMatrix in="shadowBlurOuter1" values="0 0 0 0 0.180392157 0 0 0 0 0.811764706 0 0 0 0 0.976470588 0 0 0 1 0"/></filter><filter id="ag" width="145%" height="190%" x="-22.5%" y="-45%" filterUnits="objectBoundingBox"><feMorphology in="SourceAlpha" operator="dilate" radius=".6" result="shadowSpreadOuter1"/><feOffset in="shadowSpreadOuter1" result="shadowOffsetOuter1"/><feMorphology in="SourceAlpha" radius="1" result="shadowInner"/><feOffset in="shadowInner" result="shadowInner"/><feComposite in="shadowOffsetOuter1" in2="shadowInner" operator="out" result="shadowOffsetOuter1"/><feGaussianBlur in="shadowOffsetOuter1" result="shadowBlurOuter1" stdDeviation="2.5"/><feColorMatrix in="shadowBlurOuter1" values="0 0 0 0 0.152877287 0 0 0 0 0.760326257 0 0 0 0 1 0 0 0 1 0"/></filter><filter id="ai" width="145%" height="201.3%" x="-22.5%" y="-50.6%" filterUnits="objectBoundingBox"><feMorphology in="SourceAlpha" operator="dilate" radius=".6" result="shadowSpreadOuter1"/><feOffset in="shadowSpreadOuter1" result="shadowOffsetOuter1"/><feMorphology in="SourceAlpha" radius="1" result="shadowInner"/><feOffset in="shadowInner" result="shadowInner"/><feComposite in="shadowOffsetOuter1" in2="shadowInner" operator="out" result="shadowOffsetOuter1"/><feGaussianBlur in="shadowOffsetOuter1" result="shadowBlurOuter1" stdDeviation="2.5"/><feColorMatrix in="shadowBlurOuter1" values="0 0 0 0 0.152877287 0 0 0 0 0.760326257 0 0 0 0 1 0 0 0 1 0"/></filter><filter id="ak" width="145%" height="201.3%" x="-22.5%" y="-50.6%" filterUnits="objectBoundingBox"><feMorphology in="SourceAlpha" operator="dilate" radius=".6" result="shadowSpreadOuter1"/><feOffset in="shadowSpreadOuter1" result="shadowOffsetOuter1"/><feMorphology in="SourceAlpha" radius="1" result="shadowInner"/><feOffset in="shadowInner" result="shadowInner"/><feComposite in="shadowOffsetOuter1" in2="shadowInner" operator="out" result="shadowOffsetOuter1"/><feGaussianBlur in="shadowOffsetOuter1" result="shadowBlurOuter1" stdDeviation="2.5"/><feColorMatrix in="shadowBlurOuter1" values="0 0 0 0 0.152877287 0 0 0 0 0.760326257 0 0 0 0 1 0 0 0 1 0"/></filter><path id="u" d="M.136.48H1.65v1H.136z"/><path id="x" d="M.136.48H1.65v1H.136z"/><path id="z" d="M.136.48H2.45v1H.136z"/><path id="G" d="M.576.48h1.452v1H.576z"/><path id="K" d="M.544.48h1.985v1H.544z"/><path id="N" d="M.136.48H1.65v1H.136z"/><path id="P" d="M.136.48H1.65v1H.136z"/><path id="R" d="M.136.48H2.45v1H.136z"/><path id="T" d="M.128.48h1.454v1H.128z"/><path id="V" d="M.576.48h2.252v1H.576z"/><path id="X" d="M.576.48h1.452v1H.576z"/><path id="Z" d="M.544.48h1.985v1H.544z"/><path id="ac" d="M4.094 5.76l.589-.841.606.841h.525l-.86-1.148.824-1.082-.5-.01-.568.788-.561-.788h-.532l.817 1.092-.86 1.148z"/><path id="ah" d="M0 0h36v18H0z"/><path id="aj" d="M18 12h36v16H18z"/><path id="al" d="M37 22h36v16H37z"/><linearGradient id="a" x1="47.293%" x2="47.293%" y1="2.401%" y2="97.626%"><stop offset="0%" stop-color="#23C4F6"/><stop offset="100%" stop-color="#142A5F"/></linearGradient><linearGradient id="c" x1="25.613%" x2="50%" y1="6.73%" y2="100%"><stop offset="0%" stop-color="#22C8F6"/><stop offset="100%" stop-color="#637BFF"/></linearGradient><linearGradient id="e" x1="28.845%" x2="38.381%" y1="10.287%" y2="98.61%"><stop offset="0%" stop-color="#364E73"/><stop offset="100%" stop-color="#0F1723"/></linearGradient><linearGradient id="g" x1="52.991%" x2="52.991%" y1="18.312%" y2="108.528%"><stop offset="0%" stop-color="#2A4C7A"/><stop offset="100%" stop-color="#2E4469"/></linearGradient><linearGradient id="h" x1="56.538%" x2="56.538%" y1="32.423%" y2="131.42%"><stop offset="0%" stop-color="#00BAFF"/><stop offset="100%" stop-color="#83234B" stop-opacity="0"/></linearGradient><linearGradient id="p" x1="7.804%" x2="20.672%" y1="28.427%" y2="75.82%"><stop offset="0%" stop-color="#2EBDF9"/><stop offset="100%" stop-color="#2EBEF9" stop-opacity="0"/></linearGradient><linearGradient id="q" x1="0%" x2="100%" y1="68.195%" y2="31.805%"><stop offset="0%" stop-color="#46689D"/><stop offset="100%" stop-color="#21314C"/></linearGradient><linearGradient id="r" x1="50%" x2="50%" y1="164.2%" y2="0%"><stop offset="0%" stop-color="#5B79A2"/><stop offset="100%" stop-color="#182439"/></linearGradient><linearGradient id="aa" x1="26.049%" x2="26.049%" y1="-20.736%" y2="45.033%"><stop offset="0%" stop-color="#1D77A9"/><stop offset="100%" stop-color="#212138"/></linearGradient><rect id="l" width="12" height="1.5" x="53.5" y="75" rx=".75"/></defs><g fill="none" fill-rule="evenodd"><circle cx="60" cy="60" r="60" fill="url(#a)" fill-rule="nonzero"/><ellipse cx="60" cy="99.5" fill="url(#b)" rx="42" ry="12.5"/><circle cx="60" cy="60" r="59" stroke="url(#c)" stroke-width="2"/><path fill="url(#d)" d="M26.384 24h67.232a14 14 0 0113.706 11.145l9.166 44c1.577 7.57-3.28 14.984-10.85 16.56-.94.196-1.896.295-2.855.295H17.217c-7.732 0-14-6.268-14-14 0-.96.099-1.916.295-2.855l9.166-44A14 14 0 0126.384 24z"/><path fill="url(#e)" fill-rule="nonzero" d="M26.384 24h67.232a14 14 0 0113.706 11.145l9.166 44c1.577 7.57-3.28 14.984-10.85 16.56-.94.196-1.896.295-2.855.295H17.217c-7.732 0-14-6.268-14-14 0-.96.099-1.916.295-2.855l9.166-44A14 14 0 0126.384 24z"/><path fill="url(#f)" fill-rule="nonzero" d="M26.384 24h67.232a14 14 0 0113.706 11.145l9.166 44c1.577 7.57-3.28 14.984-10.85 16.56-.94.196-1.896.295-2.855.295H17.217c-7.732 0-14-6.268-14-14 0-.96.099-1.916.295-2.855l9.166-44A14 14 0 0126.384 24z"/><path fill="url(#g)" fill-rule="nonzero" d="M26.212 25h67.576a14 14 0 0113.662 10.941l8.73 39c1.69 7.546-3.057 15.032-10.602 16.72-1.004.226-2.03.339-3.059.339H17.481c-7.732 0-14-6.268-14-14 0-1.029.113-2.055.338-3.059l8.731-39A14.002 14.002 0 0126.212 25z"/><path fill="url(#h)" fill-rule="nonzero" d="M26.212 25h67.576a14 14 0 0113.662 10.941l8.73 39c1.69 7.546-3.057 15.032-10.602 16.72-1.004.226-2.03.339-3.059.339H17.481c-7.732 0-14-6.268-14-14 0-1.029.113-2.055.338-3.059l8.731-39A14.002 14.002 0 0126.212 25z"/><ellipse cx="60" cy="82.5" fill="url(#i)" rx="43" ry="8"/><path fill="#101926" fill-rule="nonzero" d="M44 78h31v4H44z"/><path fill="url(#j)" d="M50.528 62h17.944c2.5 0 4.528 2.027 4.528 4.528v11.157a2.587 2.587 0 01-2.588 2.588H48.588A2.588 2.588 0 0146 77.685V66.528c0-2.5 2.027-4.528 4.528-4.528z"/><g fill-rule="nonzero"><use fill="#000" filter="url(#k)" xlink:href="#l"/><use fill="url(#m)" xlink:href="#l"/></g><rect width="102" height="67" x="8" y="9" fill="url(#n)" rx="14"/><rect width="102" height="67" x="8" y="9" fill="url(#o)" fill-rule="nonzero" stroke="url(#p)" rx="14"/><path stroke="url(#q)" stroke-width="2.7" d="M5.02 6.612c.19 10.853 19.06 5.468 18.885-5.467" transform="rotate(.974 -5544.552 1377.488)"/><g fill-rule="nonzero" transform="translate(22.496 95.694)"><rect width="5.592" height="4.582" x="2.097" y="1.957" fill="#21324E" rx="1.223"/><rect width="9.787" height="3.915" fill="url(#r)" rx="1.223"/></g><path stroke="url(#q)" stroke-width="2.7" d="M5.02 6.612c.19 10.853 19.06 5.468 18.885-5.467" transform="scale(-1 1) rotate(1 -5604.048 -5622.076)"/><g fill-rule="nonzero" transform="matrix(-1 0 0 1 96.496 95.694)"><rect width="5.592" height="4.582" x="2.097" y="1.957" fill="#21324E" rx="1.223"/><rect width="9.787" height="3.915" fill="url(#r)" rx="1.223"/></g><g><path fill="url(#s)" d="M2.561 0H82.24a1.23 1.23 0 01.961 2l-.159.199A4.804 4.804 0 0179.293 4H5.507a4.802 4.802 0 01-3.748-1.801L1.6 2a1.23 1.23 0 01.962-2z" transform="translate(17 68)"/><g fill-rule="nonzero"><g transform="translate(73.8 69.52)"><use fill="#000" filter="url(#t)" xlink:href="#u"/><use fill="url(#v)" xlink:href="#u"/></g><g transform="translate(78.6 69.52)"><use fill="#000" filter="url(#w)" xlink:href="#x"/><use fill="url(#v)" xlink:href="#x"/></g><path d="M.136.48H1.65v1H.136z" fill="url(#v)" opacity=".2" transform="translate(85.8 69.52)"/><g transform="translate(88.2 69.52)"><use fill="#000" filter="url(#y)" xlink:href="#z"/><use fill="url(#A)" xlink:href="#z"/></g><path d="M.512.48H1.52v1H.512z" fill="url(#B)" opacity=".2" transform="translate(72.2 69.52)"/><path d="M.128.48h1.454v1H.128z" fill="url(#C)" transform="translate(65 69.52)"/><path d="M.128.48h2.254v1H.128z" fill="url(#D)" opacity=".2" transform="translate(67.4 69.52)"/><path d="M.576.48h2.252v1H.576z" fill="url(#E)" transform="translate(61.8 69.52)"/><g transform="translate(80.2 69.52)"><use fill="#000" filter="url(#F)" xlink:href="#G"/><use fill="url(#H)" xlink:href="#G"/></g><path d="M.576.48h2.252v1H.576z" fill="url(#E)" opacity=".2" transform="translate(82.6 69.52)"/><path d="M.576.48h2.252v1H.576z" fill="url(#E)" opacity=".2" transform="translate(75.4 69.52)"/><path d="M0 .48h2.464v1H0z" fill="url(#I)" opacity=".2" transform="translate(59.4 69.52)"/><g transform="translate(69.8 69.52)"><use fill="#000" filter="url(#J)" xlink:href="#K"/><use fill="url(#L)" xlink:href="#K"/></g><g><g transform="translate(41.8 69.52)"><use fill="#000" filter="url(#M)" xlink:href="#N"/><use fill="url(#v)" xlink:href="#N"/></g><g transform="translate(46.6 69.52)"><use fill="#000" filter="url(#O)" xlink:href="#P"/><use fill="url(#v)" xlink:href="#P"/></g><path d="M.136.48H1.65v1H.136z" fill="url(#v)" opacity=".2" transform="translate(53.8 69.52)"/><g transform="translate(56.2 69.52)"><use fill="#000" filter="url(#Q)" xlink:href="#R"/><use fill="url(#A)" xlink:href="#R"/></g><path d="M.512.48H1.52v1H.512z" fill="url(#B)" opacity=".2" transform="translate(40.2 69.52)"/><g transform="translate(33 69.52)"><use fill="#000" filter="url(#S)" xlink:href="#T"/><use fill="url(#C)" xlink:href="#T"/></g><path d="M.128.48h2.254v1H.128z" fill="url(#D)" opacity=".2" transform="translate(35.4 69.52)"/><g transform="translate(29.8 69.52)"><use fill="#000" filter="url(#U)" xlink:href="#V"/><use fill="url(#E)" xlink:href="#V"/></g><g transform="translate(48.2 69.52)"><use fill="#000" filter="url(#W)" xlink:href="#X"/><use fill="url(#H)" xlink:href="#X"/></g><path d="M.576.48h2.252v1H.576z" fill="url(#E)" opacity=".2" transform="translate(50.6 69.52)"/><path d="M.576.48h2.252v1H.576z" fill="url(#E)" opacity=".2" transform="translate(43.4 69.52)"/><path d="M0 .48h2.464v1H0z" fill="url(#I)" opacity=".2" transform="translate(27.4 69.52)"/><g transform="translate(37.8 69.52)"><use fill="#000" filter="url(#Y)" xlink:href="#Z"/><use fill="url(#L)" xlink:href="#Z"/></g></g></g></g><g><g transform="translate(95.8 15.8)"><circle cx="4.64" cy="4.64" r="4" fill="url(#aa)"/><g fill-rule="nonzero"><use fill="#000" filter="url(#ab)" xlink:href="#ac"/><use fill="url(#ad)" xlink:href="#ac"/></g></g><path fill="#000" d="M100.27 16.365c1.496 0 2.564.61 3.078 1.703a3.905 3.905 0 00-5.145 5.515 3.905 3.905 0 012.067-7.219z" opacity=".15"/><path fill="url(#ae)" d="M5.26.363a4.896 4.896 0 11-.002 9.792A4.896 4.896 0 015.26.363zm0 1.005a3.891 3.891 0 100 7.782 3.891 3.891 0 00-.001-7.782z" transform="translate(95.069 15.069)"/><path fill="url(#af)" fill-rule="nonzero" d="M5.26.363a4.896 4.896 0 11-.002 9.792A4.896 4.896 0 015.26.363zm0 1.005a3.891 3.891 0 100 7.782 3.891 3.891 0 00-.001-7.782z" transform="translate(95.069 15.069)"/></g><g><g transform="translate(22 19)"><use fill="#000" filter="url(#ag)" xlink:href="#ah"/><use stroke="#32C5FF" stroke-width="1.2" xlink:href="#ah"/></g><g opacity=".5" transform="translate(22 19)"><use fill="#000" filter="url(#ai)" xlink:href="#aj"/><use stroke="#32C5FF" stroke-width="1.2" xlink:href="#aj"/></g><g opacity=".2" transform="translate(22 19)"><use fill="#000" filter="url(#ak)" xlink:href="#al"/><use stroke="#32C5FF" stroke-width="1.2" xlink:href="#al"/></g></g><path fill="url(#am)" fill-rule="nonzero" d="M96 9c7.732 0 14 6.268 14 14v4H47c-7.628 0-13.83 6.1-13.997 13.687L33 41v35H22c-7.732 0-14-6.268-14-14V23c0-7.732 6.268-14 14-14h74z" opacity=".214"/></g></svg>