<svg xmlns="http://www.w3.org/2000/svg" viewBox="0 0 194.1919 215.1343">
    <defs>
        <linearGradient id="linear-gradient" x1="407.887" y1="212.939" x2="576.435" y2="212.939"
                        gradientTransform="rotate(-13.798 -8.392 1964.053)" gradientUnits="userSpaceOnUse">
            <stop offset="0" stop-color="#fff"/>
            <stop offset=".691" stop-color="#fff" stop-opacity=".1"/>
        </linearGradient>
    </defs>
    <title>Search Error</title>
    <g style="isolation: isolate">
        <g id="Layer_2" data-name="Layer 2">
            <g id="Objects">
                <path style="fill: #cfd4db"
                      d="M131.113 162.456l-9.888-5.99-8.33 13.753 9.888 5.988a15.603 15.603 0 0 1 5.88 6.383 15.603 15.603 0 0 0 5.88 6.385l40.115 24.296a12.866 12.866 0 0 0 17.67-4.34 12.866 12.866 0 0 0-4.34-17.67l-40.114-24.296a15.603 15.603 0 0 0-8.38-2.254 15.603 15.603 0 0 1-8.38-2.254z"/>
                <path id="_Path_" data-name="&lt;Path&gt;" style="fill: #42526e"
                      d="M131.113 162.456l-3.012-1.824a8.04 8.04 0 0 0-11.04 2.71 8.04 8.04 0 0 0 2.71 11.04l3.013 1.826a15.603 15.603 0 0 1 5.88 6.383 15.603 15.603 0 0 0 5.88 6.385l40.114 24.296a12.866 12.866 0 0 0 17.67-4.34 12.866 12.866 0 0 0-4.34-17.67l-40.113-24.296a15.603 15.603 0 0 0-8.38-2.255 15.603 15.603 0 0 1-8.38-2.254z"/>
                <path style="fill: #a5adba; mix-blend-mode: multiply"
                      d="M139.144 164.704a15.597 15.597 0 0 1-8.032-2.248l-3.01-1.824a8.04 8.04 0 1 0-8.33 13.75l3.01 1.826a15.597 15.597 0 0 1 5.708 6.064 67.848 67.848 0 0 0 10.654-17.568z"/>
                <path id="_Compound_Path_" data-name="&lt;Compound Path&gt;" style="fill: #344563"
                      d="M83.254 200.08a67.235 67.235 0 0 1-32.07-130.588 66.796 66.796 0 0 1 50.867 7.786A67.235 67.235 0 0 1 83.255 200.08zM55.01 85.074A51.192 51.192 0 1 0 93.74 91a50.853 50.853 0 0 0-38.73-5.927z"/>
                <path id="_Path_2" data-name="&lt;Path&gt;" style="fill: #cce0ff"
                      d="M23.44 108.273a51.19 51.19 0 0 0 87.57 53.04 51.19 51.19 0 0 0-87.57-53.04z"/>
                <path style="fill: url(#linear-gradient)"
                      d="M79.433 184.507a51.216 51.216 0 0 0 38.99-49.945 49.126 49.126 0 0 1-5.086 2.28c-15.703 5.96-29.69 2.11-36.498.13-20.432-5.94-24.79-17.38-39.043-24.582a48.31 48.31 0 0 0-14.094-4.53c-.086.14-.18.273-.264.413a51.19 51.19 0 0 0 55.993 76.234z"/>
                <path id="_Path_3" data-name="&lt;Path&gt;" style="fill: #5e6c84"
                      d="M94.203 120.575l-11.168-10.97L67.78 125.14l-15.532-15.255-10.97 11.167 15.533 15.256-15.255 15.532 11.168 10.97 15.256-15.533 15.53 15.255 10.97-11.167-15.533-15.256 15.256-15.532z"/>
                <path style="fill: #ffc400"
                      d="M77.575 29.402L67.405.452A.675.675 0 0 0 66.1.596l-3.28 28.057-6.486-.758a.675.675 0 0 0-.715.894l10.17 28.95a.675.675 0 0 0 1.305-.145l3.28-28.058 6.485.758a.675.675 0 0 0 .715-.893zM45.57 47.798l-12.642-8.63a.296.296 0 0 0-.425.39l6.953 12.212-2.84 1.618a.296.296 0 0 0-.02.502l12.64 8.63a.296.296 0 0 0 .426-.39L42.71 49.918l2.84-1.617a.296.296 0 0 0 .02-.502z"/>
                <path style="fill: none; stroke-linecap: round; stroke-miterlimit: 10; stroke-width: 2px; stroke: #344563"
                      d="M99.593 36.046c-.695 2.074-9.743-.957-10.438 1.117s8.353 5.105 7.66 7.18-9.744-.96-10.44 1.115c-.694 2.076 8.354 5.107 7.658 7.183s-9.744-.953-10.44 1.124 8.353 5.11 7.657 7.186"/>
                <path style="fill: none; stroke-linecap: round; stroke-miterlimit: 10; stroke-width: 2px; stroke: #5e6c84"
                      d="M120.82 59.72c-1.598 1.494-7.858-5.205-9.456-3.71s4.66 8.19 3.062 9.686-7.857-5.205-9.455-3.712c-.74.693.208 2.506 1.28 4.4M16.116 59.86c2.172.266 1.058 9.366 3.23 9.632s3.285-8.834 5.457-8.57 1.057 9.367 3.228 9.633c1.01.123 1.788-1.77 2.552-3.807"/>
            </g>
        </g>
    </g>
</svg>